opsz144_wght1000_wdth50.ufo
<glyph name="zero" format="2">
	<unicode hex="0030"/>
	<advance width="1143"/>
	<outline>
		<contour>
			<point x="58.1759630637" y="884.8098144531" type="qcurve" smooth="yes"/>
			<point x="146.6873766379" y="1220.8363037109"/>
			<point x="468.6399536133" y="1557.9349365234"/>
			<point x="722.3184204102" y="1527.9699707031" type="qcurve" smooth="yes"/>
			<point x="915.456237793" y="1499.0050048828"/>
			<point x="1121.5982653098" y="996.9780273438"/>
			<point x="1049.3480822043" y="690.16015625" type="qcurve" smooth="yes"/>
			<point x="968.7841173606" y="348.0853271484"/>
			<point x="611.9901733398" y="-55.9299316406"/>
			<point x="347.2947387695" y="-22" type="qcurve" smooth="yes"/>
			<point x="164.9478759766" y="9.9299316406"/>
			<point x="-32.0917371316" y="528.6461181641"/>
		</contour>
		<contour>
			<point x="230.5168457031" y="830.5820922852" type="qcurve" smooth="yes"/>
			<point x="126.2028808594" y="449.9839477539"/>
			<point x="217.2947387695" y="98"/>
			<point x="366.2947387695" y="91" type="qcurve" smooth="yes"/>
			<point x="530.2947387695" y="84"/>
			<point x="778.8361816406" y="397.4008789062"/>
			<point x="876.7072753906" y="758.3703613281" type="qcurve" smooth="yes"/>
			<point x="951.2783203125" y="1009.5681152344"/>
			<point x="842.1782836914" y="1399.4699707031"/>
			<point x="699.1782836914" y="1406.4699707031" type="qcurve" smooth="yes"/>
			<point x="539.1782836914" y="1412.4699707031"/>
			<point x="313.8879394531" y="1118.551574707"/>
		</contour>
	</outline>
</glyph>
<glyph name="one" format="2">
	<unicode hex="0031"/>
	<advance width="738"/>
	<outline>
		<contour>
			<point x="235.9965820312" y="28.5" type="line"/>
			<point x="259.4965820312" y="61"/>
			<point x="300.5872192383" y="151.1691894531"/>
			<point x="329.5993041992" y="314.5196533203" type="qcurve" smooth="yes"/>
			<point x="500.3606567383" y="1040.1058959961" type="line"/>
			<point x="552.3842773438" y="1282.3091430664" type="line"/>
			<point x="47.5188598633" y="978.6287841797" type="line"/>
			<point x="-5.4811401367" y="1128.1287841797" type="line"/>
			<point x="600.8734130859" y="1532.9216308594" type="line"/>
			<point x="758.8734130859" y="1432.4216308594" type="line"/>
			<point x="737.8734130859" y="1396.4216308594"/>
			<point x="701.4338378906" y="1299.9216308594"/>
			<point x="687.9338378906" y="1240.9216308594" type="qcurve" smooth="yes"/>
			<point x="558.9020996094" y="716.8520507812" type="line"/>
			<point x="438.985168457" y="118" type="line"/>
			<point x="387.4965820312" y="-43.5" type="line"/>
		</contour>
	</outline>
</glyph>
<glyph name="two" format="2">
	<unicode hex="0032"/>
	<advance width="1029"/>
	<outline>
		<contour>
			<point x="-178.9758300781" y="5.1450195312" type="qcurve"/>
			<point x="-235.0302124023" y="88.1148071289" type="line"/>
			<point x="-42.6583251953" y="210.0848999023" type="line" smooth="yes"/>
			<point x="401.0681152344" y="454.7115478516"/>
			<point x="914.7831420898" y="864.9638671875"/>
			<point x="913.0609741211" y="1071.0152587891" type="qcurve" smooth="yes"/>
			<point x="911.7174072266" y="1182.9340209961"/>
			<point x="740.6325683594" y="1254.000793457"/>
			<point x="605.7192382812" y="1254.000793457" type="qcurve" smooth="yes"/>
			<point x="446.5970458984" y="1254.000793457"/>
			<point x="200.1936645508" y="1201.3430786133"/>
			<point x="102.0852050781" y="1160.2222290039" type="qcurve"/>
			<point x="34.4915771484" y="1246.1920166016" type="line"/>
			<point x="122.1740112305" y="1341.1538696289"/>
			<point x="406.6193237305" y="1529.0303955078"/>
			<point x="608.0300292969" y="1529.0303955078" type="qcurve" smooth="yes"/>
			<point x="800.9174804688" y="1529.0303955078"/>
			<point x="1041.2146606445" y="1332.3173828125"/>
			<point x="1055.9519042969" y="1190.7191772461" type="qcurve" smooth="yes"/>
			<point x="1079.5314941406" y="912.1157226562"/>
			<point x="301.2413330078" y="258.0154418945"/>
			<point x="54.7987670898" y="102.3376464844" type="qcurve"/>
			<point x="53.5173950195" y="90.6244506836" type="line"/>
			<point x="85.1821899414" y="108.3376464844"/>
			<point x="241.1501464844" y="150.8201293945"/>
			<point x="293.9635009766" y="152.6365356445" type="qcurve"/>
			<point x="380.95703125" y="143.567565918"/>
			<point x="652.7529296875" y="104.329284668"/>
			<point x="764.368347168" y="87.3696289062" type="qcurve"/>
			<point x="849.3584594727" y="258.7907714844" type="line"/>
			<point x="938.4058837891" y="233.1118164062" type="line"/>
			<point x="842.8551025391" y="-26.9799804688" type="line"/>
			<point x="670.1710205078" y="10.4688110352"/>
			<point x="447.795715332" y="97.1206665039"/>
			<point x="328.7922973633" y="98.4048461914" type="qcurve" smooth="yes"/>
			<point x="209.3341064453" y="98.3988037109"/>
			<point x="-69.4185791016" y="65.2779541016"/>
		</contour>
	</outline>
</glyph>
<glyph name="three" format="2">
	<unicode hex="0033"/>
	<advance width="1100"/>
	<outline>
		<contour>
			<point x="-143.4229736328" y="232.4749755859" type="qcurve"/>
			<point x="-143.4229736328" y="308.5776977539"/>
			<point x="-61.3704223633" y="378.6235961914"/>
			<point x="3.5069580078" y="377.6411132812" type="qcurve"/>
			<point x="66.3843383789" y="377.6109008789" type="line"/>
			<point x="54.4193725586" y="338.5806884766"/>
			<point x="37.9018554688" y="259.5746459961"/>
			<point x="41.4018554688" y="226.5323486328" type="qcurve" smooth="yes"/>
			<point x="50.3843383789" y="168.7416992188"/>
			<point x="224.3109741211" y="100.0120849609"/>
			<point x="326.6083374023" y="100.0120849609" type="qcurve" smooth="yes"/>
			<point x="519.9920043945" y="100.0120849609"/>
			<point x="794.9055786133" y="220.4553222656"/>
			<point x="827.9230957031" y="454.758972168" type="qcurve" smooth="yes"/>
			<point x="853.9230957031" y="641.4357299805"/>
			<point x="634.0541381836" y="740.8934326172"/>
			<point x="435.2322998047" y="742.8843994141" type="qcurve" smooth="yes"/>
			<point x="329.7052612305" y="740.4146118164" type="line"/>
			<point x="336.7227783203" y="863.9206542969" type="line"/>
			<point x="401.4074707031" y="866.4266967773" type="line" smooth="yes"/>
			<point x="627.9535522461" y="875.4097900391"/>
			<point x="844.2055053711" y="993.6198120117"/>
			<point x="866.1879882812" y="1126.4107666016" type="qcurve" smooth="yes"/>
			<point x="884.2055053711" y="1229.9660644531"/>
			<point x="753.0638427734" y="1315.0545654297"/>
			<point x="631.8756713867" y="1315.0545654297" type="qcurve" smooth="yes"/>
			<point x="478.7515869141" y="1315.0545654297"/>
			<point x="291.3032836914" y="1214.8547363281"/>
			<point x="250.5172729492" y="1201.9436645508" type="qcurve"/>
			<point x="170.7919311523" y="1305.3657226562" type="line"/>
			<point x="215.5596313477" y="1347.3542480469"/>
			<point x="517.473449707" y="1532.3653564453"/>
			<point x="677.68359375" y="1533.0134887695" type="qcurve" smooth="yes"/>
			<point x="853.3469848633" y="1533.6616210938"/>
			<point x="1040.266418457" y="1320.4376220703"/>
			<point x="1026.266418457" y="1174.8762817383" type="qcurve" smooth="yes"/>
			<point x="1012.266418457" y="1025.3088989258"/>
			<point x="875.8687744141" y="860.5306396484"/>
			<point x="686.8389282227" y="830.4569091797" type="qcurve"/>
			<point x="683.8564453125" y="823.4327392578" type="line"/>
			<point x="831.0774536133" y="789.3372802734"/>
			<point x="1026.1766967773" y="594.5759277344"/>
			<point x="1005.1766967773" y="412.9233398438" type="qcurve" smooth="yes"/>
			<point x="989.1241455078" y="256.0592651367"/>
			<point x="581.5080566406" y="-22"/>
			<point x="262.8857421875" y="-22" type="qcurve" smooth="yes"/>
			<point x="102.8042602539" y="-22"/>
			<point x="-143.4229736328" y="121.3124389648"/>
		</contour>
	</outline>
</glyph>
<glyph name="four" format="2">
	<unicode hex="0034"/>
	<advance width="1367"/>
	<outline>
		<contour>
			<point x="-57.6193237305" y="394.8248291016" type="line"/>
			<point x="13" y="539" type="line"/>
			<point x="1273.7990112305" y="1558.8732910156" type="line"/>
			<point x="1202.8423461914" y="1444.8732910156" type="line"/>
			<point x="1206.8423461914" y="1384.8732910156" type="line"/>
			<point x="995.1353759766" y="524.8248291016" type="line"/>
			<point x="988.1353759766" y="497.8248291016" type="line"/>
			<point x="918.857421875" y="200.5861206055" type="line"/>
			<point x="931.754699707" y="79" type="line"/>
			<point x="787.7113647461" y="-32" type="line"/>
			<point x="700.7113647461" y="14" type="line"/>
			<point x="830.0920410156" y="499.8248291016" type="line"/>
			<point x="837.0920410156" y="524.8248291016" type="line"/>
			<point x="981.7583618164" y="1201.0085449219" type="line"/>
			<point x="168" y="559" type="line"/>
			<point x="192.8131103516" y="577.8248291016" type="line"/>
			<point x="940.6323852539" y="583.8248291016" type="line"/>
			<point x="1292.8231201172" y="593.3248291016" type="line"/>
			<point x="1244.3231201172" y="391.8248291016" type="line"/>
			<point x="912.1323852539" y="394.8248291016" type="line"/>
		</contour>
	</outline>
</glyph>
<glyph name="five" format="2">
	<unicode hex="0035"/>
	<advance width="1122"/>
	<outline>
		<contour>
			<point x="-123.296081543" y="203.682800293" type="qcurve" smooth="yes"/>
			<point x="-123.296081543" y="259.8519897461"/>
			<point x="-49.2531738281" y="346.966796875"/>
			<point x="9.703918457" y="347.0090942383" type="qcurve"/>
			<point x="54.703918457" y="346.9849243164" type="line"/>
			<point x="54.703918457" y="261.7130126953" type="line" smooth="yes"/>
			<point x="54.703918457" y="181.5661621094"/>
			<point x="198.9982910156" y="103.4879150391"/>
			<point x="368.3914794922" y="103.4879150391" type="qcurve" smooth="yes"/>
			<point x="596.8438720703" y="103.4879150391"/>
			<point x="803.4309692383" y="226.1853027344"/>
			<point x="826.1236572266" y="485.5015869141" type="qcurve" smooth="yes"/>
			<point x="851.798828125" y="720.8516235352"/>
			<point x="560.2645263672" y="836.4378051758"/>
			<point x="335.3218994141" y="783.0887451172" type="qcurve" smooth="yes"/>
			<point x="178.6978759766" y="740.7300415039" type="line"/>
			<point x="111.5848999023" y="824.8188476562" type="line"/>
			<point x="243.8099975586" y="1472.9578857422" type="line"/>
			<point x="274.7924804688" y="1505.9518432617" type="line"/>
			<point x="1037.3453979492" y="1505.9518432617" type="line"/>
			<point x="994.8814697266" y="1321.4097900391" type="line"/>
			<point x="363.4333496094" y="1321.4097900391" type="line"/>
			<point x="353.4333496094" y="1310.3674926758" type="line"/>
			<point x="316.6503295898" y="1135.9306640625"/>
			<point x="278.7415771484" y="935.3547973633"/>
			<point x="240.451965332" y="868.1798706055" type="qcurve"/>
			<point x="535.8225708008" y="967.760925293" type="line"/>
			<point x="785.7252197266" y="1006.4806518555"/>
			<point x="1049.2470092773" y="750.9300537109"/>
			<point x="1031.0192871094" y="509.3263549805" type="qcurve" smooth="yes"/>
			<point x="1020.721496582" y="269.8645019531"/>
			<point x="604.2528076172" y="-24"/>
			<point x="288.0151367188" y="-24" type="qcurve" smooth="yes"/>
			<point x="96.2729492188" y="-24"/>
			<point x="-123.296081543" y="116.3927612305"/>
		</contour>
	</outline>
</glyph>
<glyph name="six" format="2">
	<unicode hex="0036"/>
	<advance width="1124"/>
	<outline>
		<contour>
			<point x="18.0525512695" y="699.9631958008" type="qcurve" smooth="yes"/>
			<point x="98.2802734375" y="1054.2568969727"/>
			<point x="760.8277587891" y="1550.223449707"/>
			<point x="1230.1548461914" y="1557.1633300781" type="qcurve"/>
			<point x="1239.1663208008" y="1444.1693725586" type="line"/>
			<point x="802.1340942383" y="1378.844909668"/>
			<point x="268.2409667969" y="1013.0771484375"/>
			<point x="170.8392944336" y="421.0923461914" type="qcurve" smooth="yes"/>
			<point x="130.6472167969" y="221.0090942383"/>
			<point x="229.667175293" y="96.9703979492"/>
			<point x="437.1314086914" y="95.9879150391" type="qcurve" smooth="yes"/>
			<point x="605.1695556641" y="94.0229492188"/>
			<point x="827.2286376953" y="332.9716796875"/>
			<point x="832.6707763672" y="544.1146240234" type="qcurve" smooth="yes"/>
			<point x="857.0319824219" y="671.6537475586"/>
			<point x="720.325378418" y="719.0626220703"/>
			<point x="609.0026855469" y="720.0451049805" type="qcurve" smooth="yes"/>
			<point x="564.612121582" y="721.0275878906"/>
			<point x="481.9849853516" y="710.1430664062"/>
			<point x="415.7584228516" y="688.5288085938" type="qcurve"/>
			<point x="406.2409057617" y="785.9200439453" type="line"/>
			<point x="503.7337036133" y="847.2326049805"/>
			<point x="625.6439208984" y="904.0511474609"/>
			<point x="680.6138305664" y="903.0686645508" type="qcurve" smooth="yes"/>
			<point x="821.3319702148" y="901.1036987305"/>
			<point x="1031.5279541016" y="700.887512207"/>
			<point x="996.2476806641" y="534.2396240234" type="qcurve" smooth="yes"/>
			<point x="961.9498901367" y="260.0756225586"/>
			<point x="613.8756103516" y="-39.9824829102"/>
			<point x="350.9917602539" y="-18" type="qcurve" smooth="yes"/>
			<point x="182.7231445312" y="-0.0175170898"/>
			<point x="-65.1051025391" y="354.9831542969"/>
		</contour>
	</outline>
</glyph>
<glyph name="seven" format="2">
	<unicode hex="0037"/>
	<advance width="1080"/>
	<outline>
		<contour>
			<point x="-80.3838500977" y="1157.3480834961" type="line"/>
			<point x="-25.1253051758" y="1505.9639282227" type="line"/>
			<point x="1113.231262207" y="1505.9639282227" type="line"/>
			<point x="1156.126159668" y="1386.4639282227" type="line"/>
			<point x="896.0776977539" y="1162.5196533203"/>
			<point x="281.6057739258" y="345.1056518555"/>
			<point x="132.8453369141" y="26.352722168" type="qcurve"/>
			<point x="62.9910888672" y="-20.5004272461" type="line"/>
			<point x="41.975769043" y="-35.0729980469" type="line"/>
			<point x="180.9939575195" y="303.2340087891"/>
			<point x="685.9514770508" y="984.5692138672"/>
			<point x="925.6986083984" y="1349.8284912109" type="qcurve"/>
			<point x="917.751159668" y="1361.8284912109" type="line"/>
			<point x="95.8629760742" y="1361.8284912109" type="line"/>
			<point x="20.6173706055" y="1158.3189086914" type="line"/>
		</contour>
	</outline>
</glyph>
<glyph name="eight" format="2">
	<unicode hex="0038"/>
	<advance width="1178"/>
	<outline>
		<contour>
			<point x="586.7423706055" y="863.3211669922" type="qcurve"/>
			<point x="673.8110961914" y="835.2467041016" type="line"/>
			<point x="535.4647827148" y="757.2982177734"/>
			<point x="368.1734008789" y="540.8460083008"/>
			<point x="335.9921875" y="359.141418457" type="qcurve" smooth="yes"/>
			<point x="303.8635253906" y="211.6574707031"/>
			<point x="393.5607299805" y="92.0054321289"/>
			<point x="512.421875" y="92.9879150391" type="qcurve" smooth="yes"/>
			<point x="640.0842895508" y="94.9528808594"/>
			<point x="883.0345458984" y="205.6934814453"/>
			<point x="898.2157592773" y="354.6915893555" type="qcurve" smooth="yes"/>
			<point x="914.3969726562" y="506.9793701172"/>
			<point x="723.9345092773" y="713.0785522461"/>
			<point x="578.9846191406" y="848.8305664062" type="qcurve" smooth="yes"/>
			<point x="455.87890625" y="971.6301269531"/>
			<point x="266.787902832" y="1177.5789794922"/>
			<point x="280.1382446289" y="1268.462097168" type="qcurve" smooth="yes"/>
			<point x="301.4360351562" y="1344.0202026367"/>
			<point x="517.6618652344" y="1525.9107666016"/>
			<point x="753.8452758789" y="1527.8757324219" type="qcurve" smooth="yes"/>
			<point x="984.5617675781" y="1529.8406982422"/>
			<point x="1170.7487792969" y="1347.1838378906"/>
			<point x="1164.3717651367" y="1248.876159668" type="qcurve" smooth="yes"/>
			<point x="1160.9923706055" y="1110.8986816406"/>
			<point x="895.3250732422" y="945.2098388672"/>
			<point x="646.214050293" y="866.5783081055" type="qcurve"/>
			<point x="561.2147827148" y="891.6346435547" type="line"/>
			<point x="683.6487426758" y="953.8255004883"/>
			<point x="792.4341430664" y="1179.258605957"/>
			<point x="806.4829101562" y="1279.6747436523" type="qcurve" smooth="yes"/>
			<point x="819.5026855469" y="1359.2746582031"/>
			<point x="797.5086669922" y="1409.3273925781"/>
			<point x="727.5592651367" y="1409.3273925781" type="qcurve" smooth="yes"/>
			<point x="579.1997070312" y="1408.344909668"/>
			<point x="450.5197753906" y="1329.7592163086"/>
			<point x="441.4146728516" y="1251.2188720703" type="qcurve" smooth="yes"/>
			<point x="430.2920532227" y="1159.9313964844"/>
			<point x="580.4745483398" y="981.7275390625"/>
			<point x="759.3348388672" y="853.6756591797" type="qcurve" smooth="yes"/>
			<point x="929.076965332" y="721.3737182617"/>
			<point x="1101.4197998047" y="480.6649169922"/>
			<point x="1077.1624755859" y="357.9558105469" type="qcurve" smooth="yes"/>
			<point x="1051.7825317383" y="201.4633789062"/>
			<point x="718.1479492188" y="-21.0350341797"/>
			<point x="452.1796264648" y="-23" type="qcurve" smooth="yes"/>
			<point x="225.5357666016" y="-23.9824829102"/>
			<point x="-95.1129150391" y="228.7595214844"/>
			<point x="-86.8090820312" y="386.3456420898" type="qcurve" smooth="yes"/>
			<point x="-78.4702148438" y="573.2922363281"/>
			<point x="314.9190673828" y="797.4237060547"/>
		</contour>
	</outline>
</glyph>
<glyph name="nine" format="2">
	<unicode hex="0039"/>
	<advance width="1086"/>
	<outline>
		<contour>
			<point x="-209.5723876953" y="-58.0054321289" type="qcurve"/>
			<point x="-218.5838623047" y="54.9885253906" type="line"/>
			<point x="209.6060180664" y="120.3129882812"/>
			<point x="741.5166625977" y="478.8994750977"/>
			<point x="840.8833007812" y="1065.8842773438" type="qcurve" smooth="yes"/>
			<point x="881.075378418" y="1266.9318847656"/>
			<point x="764.1688842773" y="1397.9276733398"/>
			<point x="596.9577636719" y="1398.91015625" type="qcurve" smooth="yes"/>
			<point x="428.9196166992" y="1400.8751220703"/>
			<point x="202.5697021484" y="1148.5593261719"/>
			<point x="178.0693359375" y="942.8619995117" type="qcurve" smooth="yes"/>
			<point x="144.1790161133" y="815.3228759766"/>
			<point x="262.6381835938" y="767.9744262695"/>
			<point x="402.719909668" y="766.9919433594" type="qcurve" smooth="yes"/>
			<point x="446.1279907227" y="766.0094604492"/>
			<point x="529.7376098633" y="776.8939819336"/>
			<point x="595.9641723633" y="798.5082397461" type="qcurve"/>
			<point x="606.4816894531" y="713.1170043945" type="line"/>
			<point x="513.9888916016" y="646.8044433594"/>
			<point x="387.0786743164" y="594.9859008789"/>
			<point x="332.1087646484" y="595.9683837891" type="qcurve" smooth="yes"/>
			<point x="190.4081420898" y="597.9333496094"/>
			<point x="-2.8053588867" y="838.0891113281"/>
			<point x="31.4924316406" y="997.7369995117" type="qcurve" smooth="yes"/>
			<point x="72.7727050781" y="1290.8828735352"/>
			<point x="399.8469848633" y="1545.8805541992"/>
			<point x="661.7483520508" y="1524.8980712891" type="qcurve" smooth="yes"/>
			<point x="838.76953125" y="1505.9155883789"/>
			<point x="1076.8276977539" y="1113.018737793"/>
			<point x="994.6700439453" y="799.0134277344" type="qcurve" smooth="yes"/>
			<point x="911.4598388672" y="444.7197265625"/>
			<point x="229.5457763672" y="-51.0655517578"/>
		</contour>
	</outline>
</glyph>
<glyph name="A" format="2">
	<unicode hex="0041"/>
	<advance width="1349"/>
	<outline>
		<contour>
			<point x="-204.9905395508" y="0" type="line"/>
			<point x="-214.8264770508" y="98.998046875" type="line"/>
			<point x="-8.2653198242" y="114.998046875" type="line"/>
			<point x="214.0197143555" y="540.1486206055" type="line"/>
			<point x="737.3073120117" y="1500" type="line"/>
			<point x="983.0562744141" y="1500" type="line"/>
			<point x="1020.121887207" y="562" type="line"/>
			<point x="1060.7840576172" y="113.998046875" type="line"/>
			<point x="1244.6496582031" y="98.998046875" type="line"/>
			<point x="1213.3566894531" y="0" type="line"/>
			<point x="661.573059082" y="0" type="line"/>
			<point x="693.866027832" y="98.998046875" type="line"/>
			<point x="902.731628418" y="120.998046875" type="line"/>
			<point x="861.2158203125" y="518" type="line"/>
			<point x="826.1513061523" y="1215.2423706055" type="line"/>
			<point x="814.9038696289" y="1344.9326782227" type="line"/>
			<point x="805.9038696289" y="1347.9326782227" type="line"/>
			<point x="728.5159912109" y="1220.5363769531" type="line"/>
			<point x="305.9077148438" y="507.2219238281" type="line"/>
			<point x="119.8489990234" y="116.998046875" type="line"/>
			<point x="345.1490478516" y="98.998046875" type="line"/>
			<point x="358.9849853516" y="0" type="line"/>
		</contour>
		<contour>
			<point x="217.7987060547" y="472.4061889648" type="line"/>
			<point x="283.7434082031" y="568.1123046875" type="line"/>
			<point x="534.0263061523" y="558.2232666016" type="line"/>
			<point x="515.3591918945" y="476.2582397461" type="line"/>
		</contour>
		<contour>
			<point x="537.8866577148" y="558.2232666016" type="line"/>
			<point x="1036.4868164062" y="567.6677856445" type="line"/>
			<point x="1041.4797973633" y="475.2952270508" type="line"/>
			<point x="519.219543457" y="476.2582397461" type="line"/>
		</contour>
	</outline>
	<anchor name="bottom" x="523" y="0"/>
	<anchor name="ogonek" x="1098" y="0"/>
	<anchor name="top" x="954" y="1500"/>
	<anchor name="tonos" x="613" y="1500"/>
</glyph>
<glyph name="D" format="2">
	<unicode hex="0044"/>
	<advance width="1341"/>
	<outline>
		<contour>
			<point x="-48.2123413086" y="0" type="line"/>
			<point x="-37.0927124023" y="98.998046875" type="line"/>
			<point x="155.6201171875" y="113.998046875" type="line"/>
			<point x="304.5004882812" y="786" type="line"/>
			<point x="428.9008789062" y="1382.2822265625" type="line"/>
			<point x="223.091796875" y="1391.2822265625" type="line"/>
			<point x="231.2665405273" y="1500" type="line"/>
			<point x="856.78515625" y="1500" type="line" smooth="yes"/>
			<point x="1058.0067749023" y="1500"/>
			<point x="1336.9681396484" y="1138.0457763672"/>
			<point x="1250.2960205078" y="737" type="qcurve" smooth="yes"/>
			<point x="1169.6284790039" y="361.9862670898"/>
			<point x="803.5463867188" y="0"/>
			<point x="500.1971435547" y="0" type="qcurve" smooth="yes"/>
		</contour>
		<contour>
			<point x="318.5288696289" y="111.7061157227" type="line"/>
			<point x="353.4190063477" y="109.7061157227"/>
			<point x="476.466003418" y="105.7061157227"/>
			<point x="539.2554321289" y="105.7061157227" type="qcurve" smooth="yes"/>
			<point x="754.6477050781" y="105.7061157227"/>
			<point x="970.8885498047" y="212.2232666016"/>
			<point x="1094.0181884766" y="763" type="qcurve" smooth="yes"/>
			<point x="1220.6430664062" y="1343.7397460938"/>
			<point x="987.243347168" y="1400.0712890625"/>
			<point x="777.6369018555" y="1400.0712890625" type="qcurve" smooth="yes"/>
			<point x="710.8612060547" y="1400.0712890625"/>
			<point x="626.1724853516" y="1400.0712890625"/>
			<point x="595.2686157227" y="1393.0712890625" type="qcurve"/>
			<point x="452.3802490234" y="761" type="line"/>
		</contour>
	</outline>
	<anchor name="bottom" x="686" y="0"/>
	<anchor name="center" x="448" y="754"/>
	<anchor name="top" x="827" y="1500"/>
	<anchor name="liga" x="1431" y="0"/>
</glyph>
<glyph name="E" format="2">
	<unicode hex="0045"/>
	<advance width="1176"/>
	<outline>
		<contour>
			<point x="-51.3793334961" y="0" type="line"/>
			<point x="-44.93359375" y="98.998046875" type="line"/>
			<point x="140.0403442383" y="112.998046875" type="line"/>
			<point x="285.920715332" y="790" type="line"/>
			<point x="419.6809692383" y="1382.2822265625" type="line"/>
			<point x="219.2509155273" y="1394.2822265625" type="line"/>
			<point x="227.0995483398" y="1500" type="line"/>
			<point x="1189.4830932617" y="1500" type="line"/>
			<point x="1079.0789794922" y="1058.362121582" type="line"/>
			<point x="999.3560791016" y="1058.362121582" type="line"/>
			<point x="990.6485595703" y="1386.5527954102" type="line"/>
			<point x="605.1181030273" y="1386.5527954102" type="line"/>
			<point x="573.1181030273" y="1364.5527954102" type="line"/>
			<point x="450.2297363281" y="773" type="line"/>
			<point x="309.8598632812" y="142.6321411133" type="line"/>
			<point x="325.8598632812" y="111.6321411133" type="line"/>
			<point x="734.591796875" y="111.6321411133" type="line"/>
			<point x="936.948425293" y="460.8228149414" type="line"/>
			<point x="1026.9513549805" y="460.8228149414" type="line"/>
			<point x="890.9645996094" y="0" type="line"/>
		</contour>
		<contour>
			<point x="208.6342773438" y="741.2582397461" type="line"/>
			<point x="235.1710205078" y="832.3342285156" type="line"/>
			<point x="756.5700683594" y="831.6677856445" type="line"/>
			<point x="858.5162963867" y="1005.8584594727" type="line"/>
			<point x="947.319519043" y="1005.8584594727" type="line"/>
			<point x="844.3154296875" y="538.8819580078" type="line"/>
			<point x="758.3125" y="538.8819580078" type="line"/>
			<point x="736.740234375" y="730.0726318359" type="line"/>
		</contour>
	</outline>
	<anchor name="bottom" x="518" y="0"/>
	<anchor name="ogonek" x="827" y="0"/>
	<anchor name="top" x="789" y="1500"/>
	<anchor name="tonos" x="81" y="1500"/>
</glyph>
<glyph name="F" format="2">
	<unicode hex="0046"/>
	<advance width="997"/>
	<outline>
		<contour>
			<point x="-69.3348999023" y="0" type="line"/>
			<point x="-59.2152709961" y="98.998046875" type="line"/>
			<point x="125.9125366211" y="112.998046875" type="line"/>
			<point x="275.3129272461" y="797" type="line"/>
			<point x="400.7533569336" y="1381.2822265625" type="line"/>
			<point x="205.382019043" y="1391.2822265625" type="line"/>
			<point x="213.5567626953" y="1500" type="line"/>
			<point x="1044.725769043" y="1500" type="line"/>
			<point x="937.3927612305" y="1065.2581176758" type="line"/>
			<point x="859.1901245117" y="1065.2581176758" type="line"/>
			<point x="848.3745117188" y="1390.3678588867" type="line"/>
			<point x="590.0440673828" y="1392.3678588867" type="line"/>
			<point x="556.0440673828" y="1369.3678588867" type="line"/>
			<point x="436.1926879883" y="795" type="line"/>
			<point x="291.7922973633" y="114.998046875" type="line"/>
			<point x="550.524597168" y="98.998046875" type="line"/>
			<point x="536.0788574219" y="0" type="line"/>
		</contour>
		<contour>
			<point x="279.7272949219" y="732.8507080078" type="line"/>
			<point x="299.3944091797" y="820.5938110352" type="line"/>
			<point x="645.6429443359" y="831.4828491211" type="line"/>
			<point x="744.4810791016" y="1002.6735229492" type="line"/>
			<point x="829.4840087891" y="1002.6735229492" type="line"/>
			<point x="730.1065063477" y="530.8079833984" type="line"/>
			<point x="646.1035766602" y="530.8079833984" type="line"/>
			<point x="626.0498046875" y="713.9986572266" type="line"/>
		</contour>
	</outline>
	<anchor name="bottom" x="578" y="0"/>
	<anchor name="top" x="622" y="1500"/>
</glyph>
<glyph name="G" format="2">
	<unicode hex="0047"/>
	<advance width="1313"/>
	<outline>
		<contour>
			<point x="60.5892944336" y="819" type="qcurve" smooth="yes"/>
			<point x="124.5892944336" y="1142"/>
			<point x="595.322265625" y="1510.9802246094"/>
			<point x="903.6655883789" y="1504.8657836914" type="qcurve" smooth="yes"/>
			<point x="1016.7780761719" y="1495.856628418"/>
			<point x="1148.3435058594" y="1427.9717407227"/>
			<point x="1178.4475097656" y="1398.5330200195" type="qcurve" smooth="yes"/>
			<point x="1228.6158567995" y="1499.1998291016" type="line"/>
			<point x="1318.591442737" y="1500" type="line"/>
			<point x="1211.1532103151" y="988.2874755859" type="line"/>
			<point x="1113.9100462526" y="988.2874755859" type="line"/>
			<point x="1109.3891722291" y="1113.8452758789" type="line"/>
			<point x="1090.4569702148" y="1226.4096069336"/>
			<point x="982.068359375" y="1356.1311645508"/>
			<point x="865.9437255859" y="1379.2699584961" type="qcurve" smooth="yes"/>
			<point x="678.3317260742" y="1421.2946777344"/>
			<point x="381.5887451172" y="1256"/>
			<point x="256.5841674805" y="746" type="qcurve" smooth="yes"/>
			<point x="166.5841674805" y="381.4815063477"/>
			<point x="398.8787231445" y="129.9453125"/>
			<point x="602.2561645508" y="121.4782714844" type="qcurve" smooth="yes"/>
			<point x="719.3077392578" y="118.0200195312"/>
			<point x="895.9876708984" y="104.2992553711"/>
			<point x="995.2980957031" y="115.3739013672" type="qcurve"/>
			<point x="1076.8026243776" y="515.0419921875" type="line"/>
			<point x="904.3857542604" y="527.5219726562" type="line"/>
			<point x="919.4282957643" y="635" type="line"/>
			<point x="1372.9374510377" y="635" type="line"/>
			<point x="1361.587170276" y="528.0419921875" type="line"/>
			<point x="1220.2100340456" y="516.0419921875" type="line"/>
			<point x="1152.8096434206" y="173" type="line"/>
			<point x="1078.0701904297" y="159" type="line"/>
			<point x="959.7846069336" y="63.0137329102"/>
			<point x="682.5612792969" y="-33.5990600586"/>
			<point x="526.3341674805" y="-12.5990600586" type="qcurve" smooth="yes"/>
			<point x="336.1788330078" y="6.4604492188"/>
			<point x="-12.4107055664" y="450"/>
		</contour>
	</outline>
	<anchor name="bottom" x="667" y="0"/>
	<anchor name="top" x="907" y="1492"/>
</glyph>
<glyph name="I" format="2">
	<unicode hex="0049"/>
	<advance width="815"/>
	<outline>
		<contour>
			<point x="-34.6224975586" y="0" type="line"/>
			<point x="-32.1767578125" y="95.9580078125" type="line"/>
			<point x="165.8621826172" y="114.9580078125" type="line"/>
			<point x="321.4164428711" y="784" type="line"/>
			<point x="441.8568725586" y="1380.2822265625" type="line"/>
			<point x="236.3555297852" y="1391.2822265625" type="line"/>
			<point x="243.8563842773" y="1500" type="line"/>
			<point x="828.0209960938" y="1500" type="line"/>
			<point x="808.9814453125" y="1391.2822265625" type="line"/>
			<point x="628.9425048828" y="1380.2822265625" type="line"/>
			<point x="483.9820556641" y="753" type="line"/>
			<point x="354.4277954102" y="113.9580078125" type="line"/>
			<point x="551.2489624023" y="95.9580078125" type="line"/>
			<point x="533.8032226562" y="0" type="line"/>
		</contour>
	</outline>
	<anchor name="bottom" x="220" y="0"/>
	<anchor name="ogonek" x="356" y="0"/>
	<anchor name="top" x="503" y="1500"/>
	<anchor name="tonos" x="81" y="1500"/>
	<anchor name="yu_dash" x="365" y="795"/>
	<anchor name="liga" x="712" y="0"/>
</glyph>
<glyph name="K" format="2">
	<unicode hex="004B"/>
	<advance width="1248"/>
	<outline>
		<contour>
			<point x="-54.9691772461" y="0" type="line"/>
			<point x="-56.3882446289" y="98.998046875" type="line"/>
			<point x="136.1243896484" y="111.998046875" type="line"/>
			<point x="287.0047607422" y="791" type="line"/>
			<point x="411.4451904297" y="1382.2822265625" type="line"/>
			<point x="214.0088500977" y="1393.2822265625" type="line"/>
			<point x="223.5097045898" y="1500" type="line"/>
			<point x="779.2705688477" y="1500" type="line"/>
			<point x="768.7697143555" y="1391.2822265625" type="line"/>
			<point x="580.4976196289" y="1382.2822265625" type="line"/>
			<point x="440.0571899414" y="755" type="line"/>
			<point x="306.1768188477" y="112.998046875" type="line"/>
			<point x="470.7420654297" y="98.998046875" type="line"/>
			<point x="462.1611328125" y="0" type="line"/>
		</contour>
		<contour>
			<point x="542.5682983398" y="708.0475463867" type="line"/>
			<point x="564.8576049805" y="819.4362792969" type="line"/>
			<point x="1116.7122192383" y="1350.2822265625" type="line"/>
			<point x="962.0301513672" y="1391.2822265625" type="line"/>
			<point x="978.5310058594" y="1500" type="line"/>
			<point x="1524.4485473633" y="1500" type="line"/>
			<point x="1517.9476928711" y="1391.2822265625" type="line"/>
			<point x="1261.8489379883" y="1346.2822265625" type="line"/>
		</contour>
		<contour>
			<point x="578.939453125" y="759.6048583984" type="line"/>
			<point x="761.8255004883" y="1011.846862793" type="line"/>
			<point x="954.3225097656" y="111.998046875" type="line"/>
			<point x="1119.671081543" y="98.998046875" type="line"/>
			<point x="1109.0901489258" y="0" type="line"/>
			<point x="655.2404174805" y="0" type="line"/>
			<point x="668.8213500977" y="98.998046875" type="line"/>
			<point x="811.2700805664" y="110.998046875" type="line"/>
		</contour>
	</outline>
	<anchor name="bottom" x="607" y="0"/>
	<anchor name="top" x="896" y="1500"/>
	<anchor name="kai_tail" x="1201" y="100"/>
</glyph>
<glyph name="L" format="2">
	<unicode hex="004C"/>
	<advance width="1182"/>
	<outline>
		<contour>
			<point x="-46.9512329102" y="0" type="line"/>
			<point x="-46.2164306641" y="100.998046875" type="line"/>
			<point x="148.8162231445" y="113.998046875" type="line"/>
			<point x="306.6965942383" y="838" type="line"/>
			<point x="422.1370239258" y="1383.7622070312" type="line"/>
			<point x="218.7678833008" y="1393.7622070312" type="line"/>
			<point x="227.7887573242" y="1500" type="line"/>
			<point x="810.3011474609" y="1500" type="line"/>
			<point x="796.2802734375" y="1389.7622070312" type="line"/>
			<point x="586.7026367188" y="1381.7622070312" type="line"/>
			<point x="449.2622070312" y="753" type="line"/>
			<point x="311.8923339844" y="113.6321411133" type="line"/>
			<point x="342.8923339844" y="102.6321411133" type="line"/>
			<point x="807.9348754883" y="102.6321411133" type="line"/>
			<point x="1005.1787719727" y="477.0949707031" type="line"/>
			<point x="1095.2620239258" y="477.0949707031" type="line"/>
			<point x="958.4243164062" y="0" type="line"/>
		</contour>
	</outline>
	<anchor name="bottom" x="535" y="0"/>
	<anchor name="centerright" x="755" y="750"/>
	<anchor name="top" x="878" y="1500"/>
	<anchor name="topright" x="804" y="1001"/>
	<anchor name="center" x="397" y="750"/>
	<anchor name="liga" x="1104" y="0"/>
</glyph>
<glyph name="N" format="2">
	<unicode hex="004E"/>
	<advance width="1588"/>
	<outline>
		<contour>
			<point x="-69.6610107422" y="0" type="line"/>
			<point x="-73.080078125" y="98.998046875" type="line"/>
			<point x="151.9125366211" y="131.998046875" type="line"/>
			<point x="282.3129272461" y="755" type="line"/>
			<point x="406.2333374023" y="1353.2822265625" type="line"/>
			<point x="224.0559082031" y="1394.2822265625" type="line"/>
			<point x="236.5567626953" y="1500" type="line"/>
			<point x="703.9093017578" y="1500" type="line"/>
			<point x="953.3247680664" y="653.2315063477" type="line"/>
			<point x="1071.5559692383" y="354.7787475586" type="line"/>
			<point x="1106.6576538086" y="262.5867919922" type="line"/>
			<point x="1106.6576538086" y="262.5867919922" type="line"/>
			<point x="1131.8619995117" y="389.9009399414" type="line"/>
			<point x="1216.819152832" y="806" type="line"/>
			<point x="1329.2595825195" y="1363.8022460938" type="line"/>
			<point x="1084.4721679688" y="1391.8022460938" type="line"/>
			<point x="1097.9546508789" y="1500" type="line"/>
			<point x="1680.3284912109" y="1500" type="line"/>
			<point x="1666.8460083008" y="1391.8022460938" type="line"/>
			<point x="1430.4472045898" y="1363.8022460938" type="line"/>
			<point x="1322.5465698242" y="789" type="line"/>
			<point x="1169.0067749023" y="-4" type="line"/>
			<point x="1007.2297973633" y="-4" type="line"/>
			<point x="750.2178955078" y="706.4923706055" type="line"/>
			<point x="568.0790405273" y="1395.3325805664" type="line"/>
			<point x="526.4307861328" y="1497.470703125" type="line"/>
			<point x="526.4307861328" y="1497.470703125" type="line"/>
			<point x="503.6037597656" y="1352.1565551758" type="line"/>
			<point x="383.0190429688" y="737" type="line"/>
			<point x="255.138671875" y="131.998046875" type="line"/>
			<point x="474.4211425781" y="98.998046875" type="line"/>
			<point x="465.8402099609" y="0" type="line"/>
		</contour>
	</outline>
	<anchor name="bottom" x="640" y="0"/>
	<anchor name="top" x="884" y="1500"/>
	<anchor name="engtail" x="1041" y="0"/>
	<anchor name="liga" x="1432" y="0"/>
</glyph>
<glyph name="P" format="2">
	<unicode hex="0050"/>
	<advance width="1134"/>
	<outline>
		<contour>
			<point x="-59.6430664062" y="0" type="line"/>
			<point x="-59.0621337891" y="98.998046875" type="line"/>
			<point x="137.1243896484" y="113.998046875" type="line"/>
			<point x="299.0047607422" y="843" type="line"/>
			<point x="413.9251708984" y="1381.2822265625" type="line"/>
			<point x="222.0738525391" y="1391.2822265625" type="line"/>
			<point x="230.9224853516" y="1500" type="line"/>
			<point x="918.8283691406" y="1500" type="line" smooth="yes"/>
			<point x="995.7485961914" y="1500"/>
			<point x="1069.5537109375" y="1275"/>
			<point x="1032.8678588867" y="1048" type="qcurve" smooth="yes"/>
			<point x="996.1820068359" y="826"/>
			<point x="753.4600830078" y="614.2568969727"/>
			<point x="679.0454711914" y="614.2568969727" type="qcurve" smooth="yes"/>
			<point x="528.9241333008" y="614.2568969727"/>
			<point x="429.1710205078" y="636.5760498047"/>
			<point x="391.7359008789" y="639.330871582" type="qcurve"/>
			<point x="414.8845214844" y="730" type="line"/>
			<point x="464.2583007812" y="721"/>
			<point x="493.1423339844" y="716"/>
			<point x="596.2868652344" y="716" type="qcurve" smooth="yes"/>
			<point x="650.6606445312" y="716"/>
			<point x="780.4340820312" y="803"/>
			<point x="844.4340820312" y="1086" type="qcurve" smooth="yes"/>
			<point x="902.4340820312" y="1343"/>
			<point x="884.0673217773" y="1394.5158081055"/>
			<point x="793.2501831055" y="1394.5158081055" type="qcurve" smooth="yes"/>
			<point x="596.424987793" y="1394.5158081055" type="line"/>
			<point x="561.3609619141" y="1365.8637084961" type="line"/>
			<point x="430.8845214844" y="764" type="line"/>
			<point x="289.5241699219" y="113.998046875" type="line"/>
			<point x="509.677734375" y="98.998046875" type="line"/>
			<point x="501.0968017578" y="0" type="line"/>
		</contour>
	</outline>
	<anchor name="bottom" x="634" y="0"/>
	<anchor name="top" x="634" y="1500"/>
</glyph>
<glyph name="S" format="2">
	<unicode hex="0053"/>
	<advance width="1031"/>
	<outline>
		<contour>
			<point x="-80.0617675781" y="23.5247802734" type="line"/>
			<point x="29.5640258789" y="490.3782958984" type="line"/>
			<point x="120.6870727539" y="490.3782958984" type="line"/>
			<point x="114.4424438477" y="349.1876220703" type="line" smooth="yes"/>
			<point x="107.5688476562" y="231.1506347656"/>
			<point x="176.403137207" y="96.7807617188"/>
			<point x="363.5615234375" y="96.7807617188" type="qcurve" smooth="yes"/>
			<point x="476.7077026367" y="96.7807617188"/>
			<point x="681.090637207" y="177.842956543"/>
			<point x="704.090637207" y="279.5928344727" type="qcurve" smooth="yes"/>
			<point x="733.090637207" y="483.3831176758"/>
			<point x="474.9476928711" y="665.15625"/>
			<point x="340.9438476562" y="793.0699462891" type="qcurve" smooth="yes"/>
			<point x="279.4191894531" y="858.4646606445"/>
			<point x="97.9706420898" y="1109.1383056641"/>
			<point x="161.9706420898" y="1265.1932983398" type="qcurve" smooth="yes"/>
			<point x="226.9706420898" y="1341.604309082"/>
			<point x="533.8137207031" y="1515"/>
			<point x="652.3472900391" y="1515" type="qcurve" smooth="yes"/>
			<point x="778.6375732422" y="1515"/>
			<point x="922.3479614258" y="1429.3668212891"/>
			<point x="912.1073608398" y="1435.87109375" type="qcurve"/>
			<point x="955.5061645508" y="1480.7957763672" type="line"/>
			<point x="1049.7088012695" y="1464.7552490234" type="line"/>
			<point x="942.1199951172" y="1027.8407592773" type="line"/>
			<point x="840.9166259766" y="1027.8407592773" type="line"/>
			<point x="848.2426147461" y="1173.2836914062" type="line"/>
			<point x="861.6036987305" y="1278.0832519531"/>
			<point x="719.8674316406" y="1381.6267700195"/>
			<point x="627.6192016602" y="1381.6267700195" type="qcurve" smooth="yes"/>
			<point x="552.9368896484" y="1381.6267700195"/>
			<point x="359.3075561523" y="1291.1717529297"/>
			<point x="333.284362793" y="1197.0119628906" type="qcurve" smooth="yes"/>
			<point x="303.2611694336" y="1057.3218383789"/>
			<point x="493.3306274414" y="933.8982543945"/>
			<point x="604.7464599609" y="865.6775512695" type="qcurve" smooth="yes"/>
			<point x="794.7902832031" y="699.2837524414"/>
			<point x="942.7969970703" y="470.0938720703"/>
			<point x="902.1343383789" y="281.2157592773" type="qcurve" smooth="yes"/>
			<point x="860.4716796875" y="118.6762084961"/>
			<point x="576.1774291992" y="-26"/>
			<point x="412.5341186523" y="-26" type="qcurve" smooth="yes"/>
			<point x="207.3320922852" y="-26"/>
			<point x="85.7149658203" y="86.7604370117"/>
			<point x="73.9796142578" y="98.6787109375" type="qcurve"/>
			<point x="-2.6657104492" y="-0.5157470703" type="line"/>
		</contour>
	</outline>
	<anchor name="bottom" x="399" y="0"/>
	<anchor name="top" x="679" y="1500"/>
</glyph>
<glyph name="U" format="2">
	<unicode hex="0055"/>
	<advance width="1418"/>
	<outline>
		<contour>
			<point x="207.9950561523" y="1393.2822265625" type="line"/>
			<point x="217.6497802734" y="1500" type="line"/>
			<point x="748.9433205345" y="1500" type="line"/>
			<point x="739.2885964134" y="1393.2822265625" type="line"/>
			<point x="572.3060302734" y="1382.2822265625" type="line"/>
			<point x="445.8255615234" y="801" type="line" smooth="yes"/>
			<point x="387.8255615234" y="534"/>
			<point x="335.5936279297" y="204.5083618164"/>
			<point x="347.9369118431" y="150.5083618164" type="qcurve" smooth="yes"/>
			<point x="375.6427001953" y="153.9830932617"/>
			<point x="481.9783547142" y="68.3515014648"/>
			<point x="578.8655007103" y="68.3515014648" type="qcurve" smooth="yes"/>
			<point x="741.6621315696" y="68.3515014648"/>
			<point x="882.6446144798" y="266.5924682617"/>
			<point x="915.0503761985" y="406" type="qcurve" smooth="yes"/>
			<point x="1004.9807961204" y="801" type="line"/>
			<point x="1124.3811867454" y="1372.2822265625" type="line"/>
			<point x="910.5049050071" y="1393.2822265625" type="line"/>
			<point x="921.1828224876" y="1500" type="line"/>
			<point x="1451.4411232689" y="1500" type="line"/>
			<point x="1440.7863991478" y="1393.2822265625" type="line"/>
			<point x="1241.6465065696" y="1373.2822265625" type="line"/>
			<point x="1114.8587258079" y="801" type="line"/>
			<point x="1029.8217385032" y="397" type="line" smooth="yes"/>
			<point x="983.4706032493" y="175.7434082031"/>
			<point x="822.1613991478" y="-24.9339599609"/>
			<point x="552.1756203392" y="-24.9339599609" type="qcurve" smooth="yes"/>
			<point x="426.7281716087" y="-24.9339599609"/>
			<point x="228.1939086914" y="125"/>
			<point x="197.4881203392" y="264" type="qcurve" smooth="yes"/>
			<point x="184.1448364258" y="349"/>
			<point x="270.1448364258" y="743"/>
			<point x="282.1448364258" y="801" type="qcurve" smooth="yes"/>
			<point x="408.065246582" y="1380.2822265625" type="line"/>
		</contour>
	</outline>
	<anchor name="bottom" x="588" y="0"/>
	<anchor name="ogonek" x="810" y="0"/>
	<anchor name="top" x="908" y="1500"/>
	<anchor name="topright" x="1561" y="1500"/>
</glyph>
<glyph name="X" format="2">
	<unicode hex="0058"/>
	<advance width="1053"/>
	<outline>
		<contour>
			<point x="-223.2138061523" y="0" type="line"/>
			<point x="-211.6328735352" y="98.998046875" type="line"/>
			<point x="8.1460571289" y="124.998046875" type="line"/>
			<point x="387.6699829102" y="661.5833740234" type="line"/>
			<point x="214.9907226562" y="1365.2822265625" type="line"/>
			<point x="43.5595703125" y="1390.2822265625" type="line"/>
			<point x="57.0604248047" y="1500" type="line"/>
			<point x="561.6743774414" y="1500" type="line"/>
			<point x="558.1735229492" y="1390.2822265625" type="line"/>
			<point x="379.7640380859" y="1369.2822265625" type="line"/>
			<point x="510.1556396484" y="1070.5920410156" type="line"/>
			<point x="551.180480957" y="984.7969970703" type="line"/>
			<point x="551.180480957" y="984.7969970703" type="line"/>
			<point x="613.6088867188" y="1082.3008422852" type="line"/>
			<point x="782.8642578125" y="1351.2822265625" type="line"/>
			<point x="595.7158813477" y="1391.2822265625" type="line"/>
			<point x="609.2167358398" y="1500" type="line"/>
			<point x="1161.0981445312" y="1500" type="line"/>
			<point x="1147.5972900391" y="1391.2822265625" type="line"/>
			<point x="927.0794677734" y="1360.2822265625" type="line"/>
			<point x="590.6066894531" y="874.0813598633" type="line"/>
			<point x="792.9762573242" y="118.998046875" type="line"/>
			<point x="991.7985229492" y="98.998046875" type="line"/>
			<point x="980.217590332" y="0" type="line"/>
			<point x="462.7290039062" y="0" type="line"/>
			<point x="474.3099365234" y="98.998046875" type="line"/>
			<point x="642.3933105469" y="117.998046875" type="line"/>
			<point x="475.1104125977" y="472.9868774414" type="line"/>
			<point x="430.9924316406" y="555.120300293" type="line"/>
			<point x="430.9924316406" y="555.120300293" type="line"/>
			<point x="363.5822753906" y="456.9108276367" type="line"/>
			<point x="157.3612670898" y="133.998046875" type="line"/>
			<point x="370.5096435547" y="98.998046875" type="line"/>
			<point x="358.0792236328" y="0" type="line"/>
		</contour>
	</outline>
	<anchor name="bottom" x="453" y="0"/>
	<anchor name="top" x="723" y="1500"/>
	<anchor name="cy_descender" x="1125" y="100"/>
	<anchor name="center" x="591" y="791"/>
</glyph>
<glyph name="Y" format="2">
	<unicode hex="0059"/>
	<advance width="1007"/>
	<outline>
		<contour>
			<point x="46.6860351562" y="0" type="line"/>
			<point x="54.2669677734" y="93.998046875" type="line"/>
			<point x="280.8446044922" y="110.998046875" type="line"/>
			<point x="389.6738891602" y="636.1162719727" type="line"/>
			<point x="331.7731933594" y="958.6952514648" type="line"/>
			<point x="219.8139648438" y="1354.2822265625" type="line"/>
			<point x="57.1000366211" y="1392.2822265625" type="line"/>
			<point x="67.6008911133" y="1500" type="line"/>
			<point x="590.3341674805" y="1500" type="line"/>
			<point x="579.8333129883" y="1392.2822265625" type="line"/>
			<point x="389.423828125" y="1373.2822265625" type="line"/>
			<point x="457.0979614258" y="1033.9831542969" type="line"/>
			<point x="528.8609008789" y="790.1218261719" type="line"/>
			<point x="528.8609008789" y="790.1218261719" type="line"/>
			<point x="679.775390625" y="1072.4683837891" type="line"/>
			<point x="832.827331543" y="1362.2822265625" type="line"/>
			<point x="614.5489501953" y="1392.2822265625" type="line"/>
			<point x="625.0498046875" y="1500" type="line"/>
			<point x="1152.9476318359" y="1500" type="line"/>
			<point x="1142.4467773438" y="1392.2822265625" type="line"/>
			<point x="966.7328491211" y="1360.2822265625" type="line"/>
			<point x="758.3555908203" y="997.9073486328" type="line"/>
			<point x="565.1815185547" y="638.8600463867" type="line"/>
			<point x="464.7243652344" y="110.998046875" type="line"/>
			<point x="667.028503418" y="93.998046875" type="line"/>
			<point x="665.4475708008" y="0" type="line"/>
		</contour>
	</outline>
	<anchor name="bottom" x="443" y="0"/>
	<anchor name="top" x="731" y="1500"/>
	<anchor name="tonos" x="-13" y="1500"/>
	<anchor name="center" x="553" y="579"/>
</glyph>
<glyph name="Z" format="2">
	<unicode hex="005A"/>
	<advance width="1083"/>
	<outline>
		<contour>
			<point x="-47.9253540039" y="0" type="line"/>
			<point x="-66.7774047852" y="89.5574951172" type="line"/>
			<point x="477.7241210938" y="817.6118774414" type="line"/>
			<point x="871.7044067383" y="1369.5527954102" type="line"/>
			<point x="869.7044067383" y="1383.5527954102" type="line"/>
			<point x="430.6451416016" y="1383.5527954102" type="line"/>
			<point x="297.415222168" y="1117.8093261719" type="line"/>
			<point x="205.6119995117" y="1117.8093261719" type="line"/>
			<point x="284.3692016602" y="1500" type="line"/>
			<point x="1122.3489990234" y="1500" type="line"/>
			<point x="1111.9784545898" y="1406.4055175781" type="line"/>
			<point x="545.2446899414" y="646.501159668" type="line"/>
			<point x="152.9799194336" y="126.6321411133" type="line"/>
			<point x="157.9799194336" y="112.6321411133" type="line"/>
			<point x="687.7135009766" y="112.6321411133" type="line"/>
			<point x="861.8298950195" y="402.1906738281" type="line"/>
			<point x="947.5527954102" y="402.1906738281" type="line"/>
			<point x="857.6065673828" y="0" type="line"/>
		</contour>
	</outline>
	<anchor name="bottom" x="383" y="0"/>
	<anchor name="top" x="643" y="1500"/>
	<anchor name="_liga" x="0" y="0"/>
</glyph>
<glyph name="a" format="2">
	<unicode hex="0061"/>
	<advance width="1019"/>
	<outline>
		<contour>
			<point x="-28.9333841075" y="287" type="qcurve" smooth="yes"/>
			<point x="-83.1228982677" y="568.8929443359"/>
			<point x="354.9264181386" y="1020.8942871094"/>
			<point x="535.6365621815" y="1020.8942871094" type="qcurve" smooth="yes"/>
			<point x="610.2336691151" y="1020.8942871094"/>
			<point x="672.9513815175" y="965.8942871094"/>
			<point x="689.8190572987" y="926.8942871094" type="qcurve"/>
			<point x="745.6246603261" y="1015.8942871094" type="line"/>
			<point x="775.8091085682" y="1008.8942871094" type="line"/>
			<point x="845.6903951893" y="888.8942871094" type="line"/>
			<point x="743.6045797597" y="428" type="line"/>
			<point x="705.3768575917" y="211" type="line"/>
			<point x="702.2114523182" y="147"/>
			<point x="714.442592455" y="69"/>
			<point x="744.9184835682" y="35" type="qcurve"/>
			<point x="484.2683370839" y="-22" type="line"/>
			<point x="498.3271749745" y="13.8511352539"/>
			<point x="505.1233785878" y="164.2927856445"/>
			<point x="521.9026144276" y="226.4494018555" type="qcurve"/>
			<point x="426.5724142323" y="128.6235961914"/>
			<point x="259.2247579823" y="-13"/>
			<point x="184.8435934315" y="-10" type="qcurve" smooth="yes"/>
			<point x="53.0834615956" y="-7"/>
			<point x="-8.2311135997" y="142"/>
		</contour>
		<contour>
			<point x="130.2168844472" y="191" type="qcurve" smooth="yes"/>
			<point x="140.0514791737" y="169"/>
			<point x="193.4099996815" y="213.513671875"/>
			<point x="235.3326071034" y="213.513671875" type="qcurve" smooth="yes"/>
			<point x="379.0943258534" y="213.513671875"/>
			<point x="519.035976244" y="288.8857421875"/>
			<point x="573.0108297597" y="522.513671875" type="qcurve" smooth="yes"/>
			<point x="643.0472067128" y="812.0075683594" type="line"/>
			<point x="642.2291525136" y="850.0075683594"/>
			<point x="567.4765280018" y="885.0075683594"/>
			<point x="521.8569601307" y="885.0075683594" type="qcurve" smooth="yes"/>
			<point x="325.371120287" y="885.0075683594"/>
			<point x="98.7461813222" y="270.8929443359"/>
		</contour>
	</outline>
	<anchor name="bottom" x="345" y="0"/>
	<anchor name="ogonek" x="732" y="0"/>
	<anchor name="top" x="608" y="1000"/>
</glyph>
<glyph name="b" format="2">
	<unicode hex="0062"/>
	<advance width="968"/>
	<outline>
		<contour>
			<point x="68.0444335938" y="423" type="qcurve" smooth="yes"/>
			<point x="98.0444335938" y="594" type="line"/>
			<point x="267.2338867188" y="1443.4211425781" type="line"/>
			<point x="91.4500732422" y="1443.6339111328" type="line"/>
			<point x="116.9947509766" y="1538.1773681641" type="line"/>
			<point x="371.9383544922" y="1586.9645996094" type="line"/>
			<point x="411.9383544922" y="1544.9645996094" type="line"/>
			<point x="219.2042236328" y="556" type="line"/>
			<point x="139.2042236328" y="121" type="line" smooth="yes"/>
			<point x="138.6040039062" y="118.798828125"/>
			<point x="200.3050537109" y="125.3970947266"/>
			<point x="219.6085205078" y="125.3970947266" type="qcurve" smooth="yes"/>
			<point x="458.8985595703" y="125.3970947266"/>
			<point x="720.1665649414" y="342.1771850586"/>
			<point x="761.7951049805" y="657.8747558594" type="qcurve" smooth="yes"/>
			<point x="756.059753418" y="706.6745605469"/>
			<point x="675.6524047852" y="758.2750244141"/>
			<point x="593.6448364258" y="758.2750244141" type="qcurve" smooth="yes"/>
			<point x="480.0180664062" y="758.2750244141"/>
			<point x="314.298034668" y="686.5603027344"/>
			<point x="230.9744873047" y="613.7593994141" type="qcurve"/>
			<point x="229.3739013672" y="768.9564208984" type="line"/>
			<point x="272.625" y="878.2072753906"/>
			<point x="557.0545043945" y="1020.2723388672"/>
			<point x="651.285949707" y="1020.2723388672" type="qcurve" smooth="yes"/>
			<point x="757.3451538086" y="1020.2723388672"/>
			<point x="922.3636474609" y="828.2723388672"/>
			<point x="911.9170532227" y="603.2723388672" type="qcurve" smooth="yes"/>
			<point x="924.0900268555" y="364.1768188477"/>
			<point x="519.3570556641" y="-15"/>
			<point x="298.3678588867" y="-15" type="qcurve" smooth="yes"/>
			<point x="145.8218994141" y="-15"/>
			<point x="32.0444335938" y="216"/>
		</contour>
	</outline>
	<anchor name="bottom" x="571" y="0"/>
	<anchor name="top" x="571" y="1533"/>
</glyph>
<glyph name="c" format="2">
	<unicode hex="0063"/>
	<advance width="960"/>
	<outline>
		<contour>
			<point x="6.2374267578" y="493.7445678711" type="qcurve" smooth="yes"/>
			<point x="50.2916259766" y="726.9613647461"/>
			<point x="440.6815185547" y="1021.2215576172"/>
			<point x="593.60546875" y="1021.2215576172" type="qcurve" smooth="yes"/>
			<point x="688.8709716797" y="1021.2215576172"/>
			<point x="854.6569824219" y="897.4891357422"/>
			<point x="854.6569824219" y="811.4891357422" type="qcurve" smooth="yes"/>
			<point x="854.6569824219" y="737.4891357422"/>
			<point x="794.4108886719" y="647.4891357422"/>
			<point x="727.6522216797" y="619.4891357422" type="qcurve"/>
			<point x="721.4802246094" y="630.4891357422" type="line"/>
			<point x="724.4802246094" y="863.4891357422" type="line" smooth="yes"/>
			<point x="725.4802246094" y="912.4891357422"/>
			<point x="670.8897705078" y="885.1258544922"/>
			<point x="591.716796875" y="885.1258544922" type="qcurve" smooth="yes"/>
			<point x="434.1444702148" y="885.1258544922"/>
			<point x="263.3725585938" y="816.4749145508"/>
			<point x="190.9981689453" y="536.7445678711" type="qcurve" smooth="yes"/>
			<point x="123.4575195312" y="280.0413208008"/>
			<point x="233.6567993164" y="208.5029296875"/>
			<point x="353.4868774414" y="193.5029296875" type="qcurve" smooth="yes"/>
			<point x="484.5662841797" y="180.5029296875"/>
			<point x="671.4395751953" y="211.8857421875"/>
			<point x="766.461730957" y="280.1171875" type="qcurve"/>
			<point x="814.5518798828" y="226.0693359375" type="line"/>
			<point x="810.5518798828" y="167.859375" type="line"/>
			<point x="727.0596923828" y="104.8236083984"/>
			<point x="461.6371459961" y="-16.732421875"/>
			<point x="292.6794433594" y="-16.732421875" type="qcurve" smooth="yes"/>
			<point x="124.408996582" y="-16.732421875"/>
			<point x="-36.5599975586" y="264.2980957031"/>
		</contour>
	</outline>
	<anchor name="bottom" x="343" y="0"/>
	<anchor name="top" x="600" y="1000"/>
</glyph>
<glyph name="d" format="2">
	<unicode hex="0064"/>
	<advance width="1029"/>
	<outline>
		<contour>
			<point x="1.505859375" y="291.5677490234" type="qcurve" smooth="yes"/>
			<point x="-3.494140625" y="567.8929443359"/>
			<point x="367.1248779297" y="964.192199707"/>
			<point x="630.4231567383" y="987.1239624023" type="qcurve" smooth="yes"/>
			<point x="665.456237793" y="987.1239624023" type="line"/>
			<point x="744.1725463867" y="1437.0297241211" type="line"/>
			<point x="568.5633544922" y="1441.6134033203" type="line"/>
			<point x="593.1080322266" y="1539.1568603516" type="line"/>
			<point x="896.3991699219" y="1590.6411132812" type="line"/>
			<point x="937.3991699219" y="1551.6411132812" type="line"/>
			<point x="723.6650390625" y="469" type="line"/>
			<point x="666.096496582" y="151.3384399414" type="line"/>
			<point x="768.6931152344" y="169.8226928711" type="line"/>
			<point x="760.6931152344" y="84.4842529297" type="line"/>
			<point x="559.642578125" y="-8" type="line"/>
			<point x="524.642578125" y="12" type="line"/>
			<point x="493.689453125" y="174.8134765625" type="line"/>
			<point x="446.0696411133" y="72.8369140625"/>
			<point x="242.5918579102" y="-14"/>
			<point x="216.6854858398" y="-10" type="qcurve" smooth="yes"/>
			<point x="109.0042114258" y="-7"/>
			<point x="4.505859375" y="144.5406494141"/>
		</contour>
		<contour>
			<point x="153.4984130859" y="195.5677490234" type="qcurve" smooth="yes"/>
			<point x="153.4984130859" y="216.7534179688"/>
			<point x="183.8959350586" y="224.1884765625"/>
			<point x="248.0749511719" y="224.1884765625" type="qcurve" smooth="yes"/>
			<point x="364.1246337891" y="224.1884765625"/>
			<point x="464.6647949219" y="233"/>
			<point x="524.0368652344" y="466" type="qcurve" smooth="yes"/>
			<point x="606.5021362305" y="774.7255249023" type="line"/>
			<point x="604.7006225586" y="814.7255249023"/>
			<point x="598.1917724609" y="850.7255249023"/>
			<point x="558.9612426758" y="850.7255249023" type="qcurve" smooth="yes"/>
			<point x="378.4326782227" y="850.7255249023"/>
			<point x="153.4984130859" y="271.8929443359"/>
		</contour>
	</outline>
	<anchor name="bottom" x="604" y="0"/>
	<anchor name="center" x="876" y="1202"/>
	<anchor name="top" x="704" y="1534"/>
	<anchor name="topright" x="1076" y="1000"/>
	<anchor name="liga" x="1067" y="0"/>
</glyph>
<glyph name="e" format="2">
	<unicode hex="0065"/>
	<advance width="1034"/>
	<outline>
		<contour>
			<point x="-1.7788085938" y="462.4064941406" type="qcurve" smooth="yes"/>
			<point x="23.7618408203" y="698.9342651367"/>
			<point x="417.0203857422" y="1047.2594604492"/>
			<point x="554.5963745117" y="1047.2594604492" type="qcurve" smooth="yes"/>
			<point x="745.0372314453" y="1047.2594604492"/>
			<point x="887.5768432617" y="876.7539672852"/>
			<point x="865.826171875" y="749.6176757812" type="qcurve" smooth="yes"/>
			<point x="846.5816040039" y="706.5852661133"/>
			<point x="833.3369750977" y="667.4348144531"/>
			<point x="830.4398193359" y="659.9884643555" type="qcurve"/>
			<point x="845.4398193359" y="653.9884643555" type="line"/>
			<point x="806.2406005859" y="518.3906860352" type="line"/>
			<point x="853.8035888672" y="518.3906860352"/>
			<point x="705.3078613281" y="517.7274169922"/>
			<point x="723.1743164062" y="520.3906860352" type="qcurve" smooth="yes"/>
			<point x="238.6397705078" y="520.3906860352" type="line"/>
			<point x="269.2388916016" y="614.9884643555" type="line"/>
			<point x="605.4528198242" y="616.9884643555" type="line"/>
			<point x="603.7405395508" y="633.0159301758"/>
			<point x="636.4122314453" y="769.8657836914"/>
			<point x="631.0337524414" y="800.75" type="qcurve" smooth="yes"/>
			<point x="636.0883789062" y="886.2677612305"/>
			<point x="594.0243530273" y="921.8623657227"/>
			<point x="572.884765625" y="921.8623657227" type="qcurve" smooth="yes"/>
			<point x="448.0591430664" y="921.8623657227"/>
			<point x="273.3673706055" y="844.535949707"/>
			<point x="203.0561523438" y="543.20703125" type="qcurve" smooth="yes"/>
			<point x="145.7720336914" y="297.3297119141"/>
			<point x="275.1356201172" y="206.4825439453"/>
			<point x="365.5268554688" y="187.3969726562" type="qcurve" smooth="yes"/>
			<point x="506.6925048828" y="164.0310058594"/>
			<point x="657.34765625" y="200.0837402344"/>
			<point x="769.0693969727" y="299.3674316406" type="qcurve"/>
			<point x="809.7512207031" y="238.0002441406" type="line"/>
			<point x="807.9161376953" y="179.8009033203" type="line"/>
			<point x="682.9446411133" y="79.4635620117"/>
			<point x="466.6840209961" y="-14.9798583984"/>
			<point x="286.9605102539" y="-21" type="qcurve" smooth="yes"/>
			<point x="241.2260742188" y="-36.9125976562"/>
			<point x="-25.2923583984" y="241.2438964844"/>
		</contour>
	</outline>
	<anchor name="bottom" x="339" y="0"/>
	<anchor name="ogonek" x="495" y="0"/>
	<anchor name="top" x="601" y="1000"/>
</glyph>
<glyph name="f" format="2">
	<unicode hex="0066"/>
	<advance width="629"/>
	<outline>
		<contour>
			<point x="-421.1468505859" y="-359.1042480469" type="line" smooth="yes"/>
			<point x="-398.0200195312" y="-228.5452880859" type="line"/>
			<point x="-259.2182006836" y="-227.477355957" type="line" smooth="yes"/>
			<point x="-59.2182006836" y="-230.5411987305"/>
			<point x="108.382019043" y="6.2341918945"/>
			<point x="174.382019043" y="421.2341918945" type="qcurve" smooth="yes"/>
			<point x="244.4844360352" y="874.9168701172" type="line"/>
			<point x="247.4843139648" y="895.5162353516" type="line"/>
			<point x="285.2867431641" y="1107.4357910156" type="line" smooth="yes"/>
			<point x="327.5435180664" y="1335.4357910156"/>
			<point x="541.694152832" y="1590.4357910156"/>
			<point x="687.0959472656" y="1590.4357910156" type="qcurve" smooth="yes"/>
			<point x="782.4797363281" y="1590.4357910156"/>
			<point x="894.5466918945" y="1506.4357910156"/>
			<point x="892.5466918945" y="1407.4357910156" type="qcurve" smooth="yes"/>
			<point x="890.5466918945" y="1323.4357910156"/>
			<point x="797.9804077148" y="1231.4357910156"/>
			<point x="758.532409668" y="1231.4357910156" type="qcurve" smooth="yes"/>
			<point x="744.0348510742" y="1251.4357910156"/>
			<point x="744.532409668" y="1346.4357910156"/>
			<point x="742.532409668" y="1389.4357910156" type="qcurve" smooth="yes"/>
			<point x="740.532409668" y="1381.6379394531"/>
			<point x="727.8286743164" y="1450.2387695312"/>
			<point x="680.405456543" y="1450.2387695312" type="qcurve" smooth="yes"/>
			<point x="600.2268066406" y="1450.2387695312"/>
			<point x="498.7065429688" y="1277.1252441406"/>
			<point x="455.3818359375" y="1020.6387939453" type="qcurve" smooth="yes"/>
			<point x="429.481628418" y="898.5162353516" type="line"/>
			<point x="426.0817260742" y="880.7166748047" type="line"/>
			<point x="386.5843505859" y="626.8957519531" type="line" smooth="yes"/>
			<point x="300.3670043945" y="84.1717529297"/>
			<point x="-38.7834472656" y="-416.1042480469"/>
			<point x="-210.4129638672" y="-416.1042480469" type="qcurve"/>
		</contour>
		<contour>
			<point x="87.1178588867" y="820.3177490234" type="line"/>
			<point x="88.5180053711" y="901.1160888672" type="line"/>
			<point x="262.0842895508" y="938.1160888672" type="line"/>
			<point x="618.7417602539" y="948.1160888672" type="line"/>
			<point x="605.1419067383" y="839.3177490234" type="line"/>
			<point x="324.1661987305" y="811.3177490234" type="line"/>
			<point x="256.4843139648" y="795.3177490234" type="line"/>
		</contour>
	</outline>
	<anchor name="bottom" x="217" y="0"/>
	<anchor name="top" x="554" y="1536"/>
</glyph>
<glyph name="g" format="2">
	<unicode hex="0067"/>
	<advance width="981"/>
	<outline>
		<contour>
			<point x="-27.890625" y="285" type="qcurve" smooth="yes"/>
			<point x="-87.9974365234" y="566.3522949219"/>
			<point x="364.7261352539" y="1019.096862793"/>
			<point x="589.9932250977" y="1019.096862793" type="qcurve" smooth="yes"/>
			<point x="650.791015625" y="1019.096862793"/>
			<point x="604.9870605469" y="979.096862793"/>
			<point x="612.9971313477" y="945.096862793" type="qcurve"/>
			<point x="628.1976928711" y="1002.096862793" type="line"/>
			<point x="738.1976928711" y="1002.096862793" type="line"/>
			<point x="826.7345581055" y="886.096862793" type="line"/>
			<point x="745.5719604492" y="547" type="line" smooth="yes"/>
			<point x="695.8287353516" y="341.7432250977"/>
			<point x="667.7248535156" y="243.9461669922"/>
			<point x="593.4212036133" y="-13.0538330078" type="qcurve" smooth="yes"/>
			<point x="542.8635253906" y="-164.0538330078"/>
			<point x="216.8093261719" y="-434.0538330078"/>
			<point x="119.7332763672" y="-424.0538330078" type="qcurve"/>
			<point x="-45.7592163086" y="-359.0538330078" type="line"/>
			<point x="-28.8215942383" y="-256.6325683594" type="line"/>
			<point x="26.3763427734" y="-254.1331787109" type="line" smooth="yes"/>
			<point x="260.5602416992" y="-255.1172485352"/>
			<point x="407.9737548828" y="1.403503418"/>
			<point x="453.0989379883" y="239.1034545898" type="qcurve" smooth="yes"/>
			<point x="439.1616210938" y="181.3583984375" type="line"/>
			<point x="395.839050293" y="132.5699462891"/>
			<point x="178.5817871094" y="20"/>
			<point x="144.1550292969" y="20" type="qcurve" smooth="yes"/>
			<point x="68.7462158203" y="20"/>
			<point x="-5.2214355469" y="142"/>
		</contour>
		<contour>
			<point x="112.2644042969" y="193" type="qcurve" smooth="yes"/>
			<point x="126.0328369141" y="172"/>
			<point x="160.3666381836" y="229.83984375"/>
			<point x="214.7711791992" y="229.83984375" type="qcurve" smooth="yes"/>
			<point x="331.2659912109" y="229.83984375"/>
			<point x="466.3704833984" y="232"/>
			<point x="525.3870239258" y="466" type="qcurve" smooth="yes"/>
			<point x="616.223449707" y="810.8380737305" type="line"/>
			<point x="648.4568481445" y="848.5491333008"/>
			<point x="593.3698730469" y="883.8380737305"/>
			<point x="547.7668457031" y="883.8380737305" type="qcurve" smooth="yes"/>
			<point x="367.1256713867" y="883.8380737305"/>
			<point x="69.9756469727" y="268.6090698242"/>
		</contour>
	</outline>
	<anchor name="bottom" x="324" y="-416"/>
	<anchor name="top" x="603" y="1000"/>
</glyph>
<glyph name="h" format="2">
	<unicode hex="0068"/>
	<advance width="1192"/>
	<outline>
		<contour>
			<point x="64.2622070312" y="-18" type="line"/>
			<point x="-9.7377929688" y="112" type="line"/>
			<point x="113.2622070312" y="599" type="line"/>
			<point x="298.0622558594" y="1442.4506835938" type="line"/>
			<point x="100.474609375" y="1441.7238769531" type="line"/>
			<point x="128.0192871094" y="1535.2673339844" type="line"/>
			<point x="426.9896240234" y="1586.994140625" type="line"/>
			<point x="464.8640136719" y="1538.994140625" type="line"/>
			<point x="291.4172363281" y="696" type="line"/>
			<point x="172.4172363281" y="133" type="line"/>
			<point x="214.4172363281" y="45" type="line"/>
		</contour>
		<contour>
			<point x="694.1165161133" y="-17" type="line"/>
			<point x="624.1165161133" y="123" type="line"/>
			<point x="753.2579956055" y="684.0822143555" type="line" smooth="yes"/>
			<point x="762.6154174805" y="735.7471313477"/>
			<point x="736.7613525391" y="776.0250244141"/>
			<point x="652.9532470703" y="776.0250244141" type="qcurve" smooth="yes"/>
			<point x="561.8778686523" y="776.0250244141"/>
			<point x="360.1194458008" y="705.6478881836"/>
			<point x="262.9544067383" y="621.0728759766" type="qcurve"/>
			<point x="252.9479370117" y="736.8433837891" type="line"/>
			<point x="334.1723022461" y="882.9430541992"/>
			<point x="649.7059936523" y="1020.5162353516"/>
			<point x="772.6723632812" y="1020.5162353516" type="qcurve" smooth="yes"/>
			<point x="835.7360839844" y="1020.5162353516"/>
			<point x="976.1252441406" y="866.4361572266"/>
			<point x="946.7915649414" y="738.4096679688" type="qcurve" smooth="yes"/>
			<point x="816.6674804688" y="161.9975585938" type="line"/>
			<point x="923.4750366211" y="174.6937255859" type="line"/>
			<point x="914.4750366211" y="86.6961669922" type="line"/>
		</contour>
	</outline>
	<anchor name="bottom" x="420" y="0"/>
	<anchor name="center" x="347" y="1202"/>
	<anchor name="top" x="424" y="1534"/>
</glyph>
<glyph name="k" format="2">
	<unicode hex="006B"/>
	<advance width="1031"/>
	<outline>
		<contour>
			<point x="406.6161499023" y="387.2072143555" type="line"/>
			<point x="149.9750976562" y="190.0084228516" type="line"/>
			<point x="148.453125" y="300.3718261719" type="line"/>
			<point x="641.4395751953" y="656.7142944336" type="line"/>
			<point x="628.3931884766" y="705.399597168"/>
			<point x="567.8836669922" y="742.2088012695"/>
			<point x="515.5111083984" y="742.2088012695" type="qcurve" smooth="yes"/>
			<point x="418.2379760742" y="742.2088012695"/>
			<point x="290.3937988281" y="616.2822265625"/>
			<point x="285.1430664062" y="614.6942749023" type="qcurve"/>
			<point x="268.0971679688" y="535.2323608398" type="line"/>
			<point x="180.9345703125" y="134" type="line"/>
			<point x="224.9345703125" y="48" type="line"/>
			<point x="61.2622070312" y="-18" type="line"/>
			<point x="-7.7377929688" y="112" type="line"/>
			<point x="117.2622070312" y="597" type="line"/>
			<point x="298.0744018555" y="1439.3479614258" type="line"/>
			<point x="117.2899169922" y="1443.09765625" type="line"/>
			<point x="143.8345947266" y="1538.6411132812" type="line"/>
			<point x="432.5069580078" y="1574.6411132812" type="line"/>
			<point x="469.5069580078" y="1526.6411132812" type="line"/>
			<point x="307.5315551758" y="755.4979858398" type="line"/>
			<point x="360.2308349609" y="824.6134033203"/>
			<point x="577.725402832" y="1009.7649536133"/>
			<point x="674.9013061523" y="1009.7649536133" type="qcurve" smooth="yes"/>
			<point x="762.5523681641" y="1009.7649536133"/>
			<point x="889.9406738281" y="855.9609375"/>
			<point x="900.1304321289" y="779.3735961914" type="qcurve" smooth="yes"/>
			<point x="916.7608032227" y="677.6488647461" type="line"/>
			<point x="904.1328735352" y="651.1605834961" type="line"/>
			<point x="601.3522949219" y="509.3971557617" type="line"/>
		</contour>
		<contour>
			<point x="570.8728637695" y="556.774597168" type="line"/>
			<point x="864.4362792969" y="161.9975585938" type="line"/>
			<point x="973.6285400391" y="170.3907470703" type="line"/>
			<point x="962.6285400391" y="83.3931884766" type="line"/>
			<point x="812.8312988281" y="-13" type="line" smooth="yes"/>
			<point x="788.9865722656" y="-21.0394287109"/>
			<point x="785.6076660156" y="-9"/>
			<point x="736.7507324219" y="11" type="qcurve" smooth="yes"/>
			<point x="413.6921386719" y="466.0528564453" type="line"/>
		</contour>
	</outline>
	<anchor name="bottom" x="448" y="0"/>
	<anchor name="top" x="578" y="1534"/>
</glyph>
<glyph name="m" format="2">
	<unicode hex="006D"/>
	<advance width="1715"/>
	<outline>
		<contour>
			<point x="102.001953125" y="-25" type="line"/>
			<point x="24.001953125" y="112" type="line"/>
			<point x="115.001953125" y="457" type="line"/>
			<point x="188.9716796875" y="812.7075195312" type="line"/>
			<point x="56.9522094727" y="830.2241210938" type="line"/>
			<point x="63.633972168" y="926.2896118164" type="line"/>
			<point x="186.6428833008" y="1027.7730102539" type="line"/>
			<point x="354.6428833008" y="993.7730102539" type="line"/>
			<point x="301.3432617188" y="638.6486206055" type="line"/>
			<point x="332.1964111328" y="680" type="line"/>
			<point x="207.1964111328" y="130" type="line"/>
			<point x="250.1964111328" y="45" type="line"/>
		</contour>
		<contour>
			<point x="703.4487915039" y="-21" type="line"/>
			<point x="624.4487915039" y="130" type="line"/>
			<point x="760.4671630859" y="752.3056030273" type="line" smooth="yes"/>
			<point x="755.0435791016" y="723.4444580078"/>
			<point x="723.2305908203" y="769.6747436523"/>
			<point x="630.4356689453" y="769.6747436523" type="qcurve" smooth="yes"/>
			<point x="540.2182617188" y="769.6747436523"/>
			<point x="365.0654907227" y="681.753112793"/>
			<point x="246.5097045898" y="552.5490112305" type="qcurve"/>
			<point x="270.5939331055" y="700.0022583008" type="line"/>
			<point x="266.7207641602" y="778.009765625"/>
			<point x="660.4083251953" y="1014.3056030273"/>
			<point x="758.7867431641" y="1014.3056030273" type="qcurve" smooth="yes"/>
			<point x="859.9313964844" y="1014.3056030273"/>
			<point x="953.3057861328" y="855.2719116211"/>
			<point x="914.3289794922" y="751.0010375977" type="qcurve" smooth="yes"/>
			<point x="775.0076293945" y="128" type="line"/>
			<point x="800.0076293945" y="68" type="line"/>
		</contour>
		<contour>
			<point x="1257.5300292969" y="-20" type="line"/>
			<point x="1186.5300292969" y="131" type="line"/>
			<point x="1328.1763305664" y="751.6776733398" type="line" smooth="yes"/>
			<point x="1323.752746582" y="723.4444580078"/>
			<point x="1287.4814453125" y="772.8143920898"/>
			<point x="1210.5009765625" y="772.8143920898" type="qcurve" smooth="yes"/>
			<point x="1111.1879272461" y="772.8143920898"/>
			<point x="928.4438476562" y="643.4731445312"/>
			<point x="840.3103027344" y="529.6676635742" type="qcurve"/>
			<point x="858.1760253906" y="682.5075073242" type="line"/>
			<point x="815.3601074219" y="709.5127563477"/>
			<point x="1193.7313842773" y="1014.3056030273"/>
			<point x="1310.3121948242" y="1014.3056030273" type="qcurve" smooth="yes"/>
			<point x="1411.3805541992" y="1014.3056030273"/>
			<point x="1503.2877197266" y="853.2397460938"/>
			<point x="1486.0505981445" y="788.4789428711" type="qcurve" smooth="yes"/>
			<point x="1347.1646118164" y="161.9975585938" type="line"/>
			<point x="1454.9721679688" y="177.451171875" type="line"/>
			<point x="1446.9721679688" y="89.4536132812" type="line"/>
		</contour>
	</outline>
	<anchor name="bottom" x="958" y="0"/>
	<anchor name="top" x="958" y="1000"/>
	<anchor name="cy_descender" x="1572" y="134"/>
</glyph>
<glyph name="n" format="2">
	<unicode hex="006E"/>
	<advance width="1129"/>
	<outline>
		<contour>
			<point x="116.0660400391" y="-53.3400878906" type="line"/>
			<point x="18.2137451172" y="39.8713378906" type="line"/>
			<point x="115.001953125" y="458" type="line"/>
			<point x="193.3707275391" y="852.125793457" type="line"/>
			<point x="60.3512573242" y="859.6423950195" type="line"/>
			<point x="67.0330200195" y="943.7078857422" type="line"/>
			<point x="322.6047973633" y="1020.1442871094" type="line"/>
			<point x="352.2438354492" y="986.1442871094" type="line"/>
			<point x="315.9544677734" y="716.5360107422" type="line"/>
			<point x="347.2438354492" y="750.5162353516" type="line"/>
			<point x="192.8908691406" y="58.8713378906" type="line"/>
			<point x="245.4671630859" y="17.4580078125" type="line"/>
		</contour>
		<contour>
			<point x="742.3032226562" y="-17" type="line"/>
			<point x="660.4301147461" y="102.6057128906" type="line"/>
			<point x="792.2717895508" y="735.381652832" type="line" smooth="yes"/>
			<point x="797.5866088867" y="766.275390625"/>
			<point x="773.4104003906" y="835.0767822266"/>
			<point x="683.7127685547" y="835.0767822266" type="qcurve" smooth="yes"/>
			<point x="593.1486206055" y="835.0767822266"/>
			<point x="344.3218383789" y="666.7951660156"/>
			<point x="285.1677246094" y="599.274230957" type="qcurve"/>
			<point x="259.7930297852" y="675.4393920898" type="line"/>
			<point x="337.0521850586" y="845.5388183594"/>
			<point x="682.8023071289" y="1014.048828125"/>
			<point x="796.3421020508" y="1014.048828125" type="qcurve" smooth="yes"/>
			<point x="878.2034301758" y="1014.048828125"/>
			<point x="999.0344238281" y="885.2934570312"/>
			<point x="974.1983032227" y="785.4145507812" type="qcurve" smooth="yes"/>
			<point x="845.5031738281" y="161.9975585938" type="line"/>
			<point x="952.3107299805" y="174.6937255859" type="line"/>
			<point x="943.3107299805" y="86.6961669922" type="line"/>
		</contour>
	</outline>
	<anchor name="bottom" x="522" y="0"/>
	<anchor name="top" x="602" y="1000"/>
	<anchor name="liga" x="1173" y="0"/>
</glyph>
<glyph name="o" format="2">
	<unicode hex="006F"/>
	<advance width="1021"/>
	<outline>
		<contour>
			<point x="18.430978586" y="569.4051513672" type="qcurve" smooth="yes"/>
			<point x="61.3304536837" y="737.8701171875"/>
			<point x="371.0368652344" y="1024.2216186523"/>
			<point x="583.979013254" y="1019.0527954102" type="qcurve" smooth="yes"/>
			<point x="767.4772338867" y="1014.5775756836"/>
			<point x="998.9203491211" y="723.0679321289"/>
			<point x="947.3516845703" y="499.514831543" type="qcurve" smooth="yes"/>
			<point x="908.132019043" y="305.8159790039"/>
			<point x="600.7855834961" y="-20.7600708008"/>
			<point x="371.8189180391" y="-10.9343261719" type="qcurve" smooth="yes"/>
			<point x="219.3253173828" y="-9.8645019531"/>
			<point x="-49.7780668242" y="296.41015625"/>
		</contour>
		<contour>
			<point x="180.4257295626" y="535.981262207" type="qcurve" smooth="yes"/>
			<point x="128.5244015001" y="361.7680025254"/>
			<point x="215.4038789766" y="96.9938354492"/>
			<point x="350.937631418" y="96.0633544922" type="qcurve" smooth="yes"/>
			<point x="495.4801083797" y="99.423602517"/>
			<point x="714.0519613063" y="353.126154015"/>
			<point x="757.1520479219" y="510.0012207031" type="qcurve" smooth="yes"/>
			<point x="803.1856269358" y="667.2407325854"/>
			<point x="690.8759789905" y="887.3815550693"/>
			<point x="558.7035615938" y="898.4518432617" type="qcurve" smooth="yes"/>
			<point x="417.4912202852" y="910.4035644531"/>
			<point x="222.9556571148" y="679.0975644258"/>
		</contour>
	</outline>
	<anchor name="bottom" x="358" y="0"/>
	<anchor name="center" x="461" y="500"/>
	<anchor name="ogonek" x="514" y="0"/>
	<anchor name="top" x="584" y="1000"/>
	<anchor name="topright" x="663" y="1000"/>
	<anchor name="GRKtop" x="584" y="1000"/>
	<anchor name="yu_dash" x="83" y="498"/>
</glyph>
<glyph name="p" format="2">
	<unicode hex="0070"/>
	<advance width="906"/>
	<outline>
		<contour>
			<point x="-60.494140625" y="-391.3538818359" type="line"/>
			<point x="152.306640625" y="572" type="line"/>
			<point x="205.6718139648" y="841.2994384766" type="line"/>
			<point x="176.6718139648" y="976.2994384766" type="line"/>
			<point x="177.5508422852" y="1027.2994384766" type="line"/>
			<point x="307.5508422852" y="997.2994384766" type="line"/>
			<point x="334.9862670898" y="843.8355712891" type="line"/>
			<point x="368.4724121094" y="919.5621337891"/>
			<point x="589.7838745117" y="1016.83203125"/>
			<point x="638.6477050781" y="1016.83203125" type="qcurve" smooth="yes"/>
			<point x="769.5051269531" y="1016.83203125"/>
			<point x="858.1126098633" y="851.4334716797"/>
			<point x="855.7983398438" y="664.283203125" type="qcurve" smooth="yes"/>
			<point x="877.0209350586" y="372.8929443359"/>
			<point x="511.1514282227" y="10"/>
			<point x="348.9971923828" y="10" type="qcurve" smooth="yes"/>
			<point x="293.4542236328" y="10"/>
			<point x="236.0202636719" y="33"/>
			<point x="206.1856689453" y="49" type="qcurve"/>
			<point x="126.7981567383" y="-331.1060180664" type="line"/>
			<point x="295.9836425781" y="-328.8717041016" type="line"/>
			<point x="282.4389648438" y="-402.4151611328" type="line"/>
			<point x="-17.1940917969" y="-441.3538818359" type="line"/>
		</contour>
		<contour>
			<point x="232.6271362305" y="189.3740844727" type="line"/>
			<point x="244.255065918" y="185.630859375"/>
			<point x="285.6358032227" y="180.630859375"/>
			<point x="329.172668457" y="180.630859375" type="qcurve" smooth="yes"/>
			<point x="525.3607788086" y="180.630859375"/>
			<point x="628.2459106445" y="293.4606933594"/>
			<point x="622.0563964844" y="483.9613647461" type="qcurve" smooth="yes"/>
			<point x="671.3045043945" y="760.2452392578"/>
			<point x="639.5132446289" y="746.48046875"/>
			<point x="588.8726806641" y="746.48046875" type="qcurve" smooth="yes"/>
			<point x="512.1815795898" y="746.48046875"/>
			<point x="410.8524169922" y="734.2281494141"/>
			<point x="339.3004760742" y="691.9722900391" type="qcurve"/>
			<point x="307.1856689453" y="549" type="line"/>
		</contour>
	</outline>
	<anchor name="bottom" x="599" y="0"/>
	<anchor name="top" x="599" y="1000"/>
</glyph>
<glyph name="q" format="2">
	<unicode hex="0071"/>
	<advance width="1048"/>
	<outline>
		<contour>
			<point x="-11.0598754883" y="289.5677490234" type="qcurve" smooth="yes"/>
			<point x="-72.1501464844" y="571.663269043"/>
			<point x="337.1083374023" y="1020.3807373047"/>
			<point x="634.9971313477" y="1020.3807373047" type="qcurve" smooth="yes"/>
			<point x="712.8648071289" y="1020.3807373047"/>
			<point x="788.5505371094" y="965.3807373047"/>
			<point x="809.4016723633" y="925.3807373047" type="qcurve"/>
			<point x="746.6517333984" y="1014.3807373047" type="line"/>
			<point x="857.6517333984" y="1007.3807373047" type="line"/>
			<point x="916.6517333984" y="889.3807373047" type="line"/>
			<point x="809.9484863281" y="468" type="line"/>
			<point x="606.3834228516" y="-323.4468994141" type="line"/>
			<point x="758.5462646484" y="-330.8717041016" type="line"/>
			<point x="735.0015869141" y="-405.4151611328" type="line"/>
			<point x="476.0877685547" y="-422.3538818359" type="line"/>
			<point x="456.4377441406" y="-373.3538818359" type="line"/>
			<point x="606.7886962891" y="165" type="line"/>
			<point x="603.7886962891" y="165" type="line"/>
			<point x="499.5461425781" y="56.8028564453"/>
			<point x="328.2482910156" y="-11"/>
			<point x="271.7692871094" y="-11" type="qcurve" smooth="yes"/>
			<point x="171.2015380859" y="-11"/>
			<point x="20.4769897461" y="190.9763793945"/>
		</contour>
		<contour>
			<point x="97.2229614258" y="179.5677490234" type="qcurve" smooth="yes"/>
			<point x="110.0079345703" y="185.0482788086"/>
			<point x="189.3383789062" y="198.4443359375"/>
			<point x="270.8576660156" y="198.4443359375" type="qcurve" smooth="yes"/>
			<point x="405.1870727539" y="198.4443359375"/>
			<point x="629.6159667969" y="309.1397094727"/>
			<point x="658.7886962891" y="466" type="qcurve" smooth="yes"/>
			<point x="752.6513061523" y="817.2615966797" type="line"/>
			<point x="753.7836303711" y="854.2119750977"/>
			<point x="680.5689086914" y="888.2615966797"/>
			<point x="623.1478271484" y="888.2615966797" type="qcurve" smooth="yes"/>
			<point x="409.8187255859" y="888.2615966797"/>
			<point x="59.8515014648" y="231.3168334961"/>
		</contour>
	</outline>
	<anchor name="bottom" x="594" y="0"/>
	<anchor name="top" x="594" y="1000"/>
</glyph>
<glyph name="r" format="2">
	<unicode hex="0072"/>
	<advance width="727"/>
	<outline>
		<contour>
			<point x="107.6108398438" y="-24" type="line"/>
			<point x="32.6108398438" y="114" type="line"/>
			<point x="124.6108398438" y="457" type="line"/>
			<point x="196.5805664062" y="812.3666381836" type="line"/>
			<point x="64.8036499023" y="830.4666748047" type="line"/>
			<point x="72.4854125977" y="924.5321655273" type="line"/>
			<point x="194.2123413086" y="1029.7730102539" type="line"/>
			<point x="362.2123413086" y="994.7730102539" type="line"/>
			<point x="325.6771850586" y="811.0767211914" type="line"/>
			<point x="359.2123413086" y="751.7730102539" type="line"/>
			<point x="217.5608520508" y="152.6340332031" type="line"/>
			<point x="329.6109619141" y="148.2698974609" type="line"/>
			<point x="334.6109619141" y="73.2723388672" type="line"/>
		</contour>
		<contour>
			<point x="603.2196655273" y="557.0582885742" type="line"/>
			<point x="602.5211181641" y="833.3026733398" type="line"/>
			<point x="517.2796630859" y="803.3026733398"/>
			<point x="391.1664428711" y="797.3550415039"/>
			<point x="313.2123413086" y="665.7730102539" type="qcurve"/>
			<point x="289.7474975586" y="777.4497680664" type="line"/>
			<point x="310.1176147461" y="859.9116821289"/>
			<point x="548.2534790039" y="1028.3056030273"/>
			<point x="622.5598144531" y="1028.3056030273" type="qcurve" smooth="yes"/>
			<point x="684.4488525391" y="1028.3056030273"/>
			<point x="748.3477783203" y="948.3056030273"/>
			<point x="748.3477783203" y="874.3056030273" type="qcurve" smooth="yes"/>
			<point x="748.3477783203" y="765.5557702932"/>
			<point x="727.4647140503" y="562.0582885742"/>
			<point x="636.6799926758" y="549.9789428711" type="qcurve" smooth="yes"/>
		</contour>
	</outline>
	<anchor name="bottom" x="282" y="0"/>
	<anchor name="top" x="486" y="1000"/>
</glyph>
<glyph name="s" format="2">
	<unicode hex="0073"/>
	<advance width="722"/>
	<outline>
		<contour>
			<point x="-48.8686523438" y="144" type="qcurve" smooth="yes"/>
			<point x="-46.8686523438" y="209"/>
			<point x="6.1434326172" y="300"/>
			<point x="60.4263916016" y="300" type="qcurve" smooth="yes"/>
			<point x="83.4263916016" y="300" type="line"/>
			<point x="83.4263916016" y="211" type="line" smooth="yes"/>
			<point x="83.4263916016" y="150.5986328125"/>
			<point x="151.9162597656" y="96.8649902344"/>
			<point x="246.0259399414" y="96.8649902344" type="qcurve" smooth="yes"/>
			<point x="315.801574707" y="96.8649902344"/>
			<point x="455.2172851562" y="156.8751831055"/>
			<point x="458.2172851562" y="217.0221557617" type="qcurve" smooth="yes"/>
			<point x="462.2172851562" y="303.0661621094"/>
			<point x="385.4693603516" y="354.7966308594"/>
			<point x="287.8954467773" y="444.8446655273" type="qcurve" smooth="yes"/>
			<point x="174.5720825195" y="534.8440551758"/>
			<point x="62.6450195312" y="691.2261962891"/>
			<point x="85.3248291016" y="816.5100708008" type="qcurve" smooth="yes"/>
			<point x="108.0046386719" y="876.1239624023"/>
			<point x="325.9434814453" y="1021.2486572266"/>
			<point x="426.7281494141" y="1021.2486572266" type="qcurve" smooth="yes"/>
			<point x="524.3169555664" y="1021.2486572266"/>
			<point x="653.9535522461" y="926.5162353516"/>
			<point x="652.9535522461" y="851.5162353516" type="qcurve" smooth="yes"/>
			<point x="651.9535522461" y="800.5162353516"/>
			<point x="593.3872680664" y="712.5162353516"/>
			<point x="578.3729858398" y="712.5162353516" type="qcurve" smooth="yes"/>
			<point x="548.3729858398" y="712.5162353516" type="line"/>
			<point x="550.3729858398" y="850.5162353516" type="line" smooth="yes"/>
			<point x="551.3729858398" y="836.8666381836"/>
			<point x="421.7126464844" y="912.451171875"/>
			<point x="344.1665039062" y="912.451171875" type="qcurve" smooth="yes"/>
			<point x="263.5044555664" y="912.451171875"/>
			<point x="215.7161254883" y="861.2211914062"/>
			<point x="215.7161254883" y="816.6236572266" type="qcurve" smooth="yes"/>
			<point x="215.7161254883" y="761.2529296875"/>
			<point x="312.9257202148" y="686.8936157227"/>
			<point x="385.464050293" y="628.8160400391" type="qcurve" smooth="yes"/>
			<point x="471.7424316406" y="558.1276245117"/>
			<point x="601.4259033203" y="429.3665771484"/>
			<point x="597.4259033203" y="300.0014038086" type="qcurve"/>
			<point x="594.922668457" y="152.7051391602"/>
			<point x="341.7791748047" y="-20.732421875"/>
			<point x="188.0813598633" y="-20.732421875" type="qcurve" smooth="yes"/>
			<point x="101.1561279297" y="-20.732421875"/>
			<point x="-50.8686523438" y="62"/>
		</contour>
	</outline>
	<anchor name="bottom" x="282" y="0"/>
	<anchor name="top" x="446" y="1000"/>
</glyph>
<glyph name="t" format="2">
	<unicode hex="0074"/>
	<advance width="556"/>
	<outline>
		<contour>
			<point x="62.87109375" y="-21" type="line"/>
			<point x="15.87109375" y="70" type="line"/>
			<point x="127.87109375" y="503" type="line"/>
			<point x="199.9176635742" y="839.9167480469" type="line"/>
			<point x="68.9176635742" y="852.9167480469" type="line"/>
			<point x="76.1173706055" y="956.3153076172" type="line"/>
			<point x="287.2283325195" y="997.0012817383"/>
			<point x="373.865234375" y="1217.2059936523"/>
			<point x="319.1000976562" y="1264.5162353516" type="qcurve"/>
			<point x="342.885925293" y="1273.5162353516" type="line"/>
			<point x="401.885925293" y="1231.5162353516" type="line"/>
			<point x="257.5552978516" y="456" type="line"/>
			<point x="172.8709106445" y="174.9296264648" type="line"/>
			<point x="340.6508178711" y="183.4130249023" type="line"/>
			<point x="340.6508178711" y="108.4833984375" type="line"/>
		</contour>
		<contour>
			<point x="584.1176147461" y="845.5164794922" type="line"/>
			<point x="609.3168334961" y="968.71484375" type="line"/>
			<point x="557.5572509766" y="992.7141113281" type="line"/>
			<point x="540.3572998047" y="855.5164794922" type="line"/>
		</contour>
	</outline>
	<anchor name="bottom" x="149" y="0"/>
	<anchor name="center" x="262" y="622"/>
	<anchor name="top" x="322" y="1179"/>
	<anchor name="topright" x="600" y="920"/>
</glyph>
<glyph name="u" format="2">
	<unicode hex="0075"/>
	<advance width="1158"/>
	<outline>
		<contour>
			<point x="787.0296020508" y="-21" type="line"/>
			<point x="651.0296020508" y="121" type="line"/>
			<point x="676.5103759766" y="326.7758178711" type="line"/>
			<point x="808.4760742188" y="912.0297851562" type="line"/>
			<point x="772.4760742188" y="960.0297851562" type="line"/>
			<point x="862.7541503906" y="1025.0297851562" type="line"/>
			<point x="960.7541503906" y="869.0297851562" type="line"/>
			<point x="861.3076782227" y="455" type="line"/>
			<point x="800.7164916992" y="174.6566772461" type="line"/>
			<point x="918.2284545898" y="171.6558227539" type="line"/>
			<point x="911.9102172852" y="79.9991455078" type="line"/>
		</contour>
		<contour>
			<point x="39.1752929688" y="309" type="qcurve" smooth="yes"/>
			<point x="153.1450195312" y="837.3051757812" type="line"/>
			<point x="43.428527832" y="826.8217773438" type="line"/>
			<point x="54.1102905273" y="918.5463867188" type="line"/>
			<point x="177.7767944336" y="1009.0297851562" type="line"/>
			<point x="310.7767944336" y="1009.0297851562" type="line"/>
			<point x="361.7767944336" y="947.0297851562" type="line"/>
			<point x="227.1302490234" y="323.9996337891" type="line" smooth="yes"/>
			<point x="207.6732788086" y="241.3984375"/>
			<point x="248.7199707031" y="207.1970214844"/>
			<point x="306.458984375" y="207.1970214844" type="qcurve" smooth="yes"/>
			<point x="407.3089599609" y="207.1970214844"/>
			<point x="623.2463378906" y="359.6325683594"/>
			<point x="720.7381591797" y="388.9192504883" type="qcurve"/>
			<point x="711.4619140625" y="284.1986694336" type="line"/>
			<point x="666.2423706055" y="197.5368041992"/>
			<point x="323.571472168" y="-11"/>
			<point x="220.426574707" y="-11" type="qcurve" smooth="yes"/>
			<point x="159.0432739258" y="-11"/>
			<point x="9.4954833984" y="174"/>
		</contour>
	</outline>
	<anchor name="bottom" x="404" y="0"/>
	<anchor name="ogonek" x="871" y="20"/>
	<anchor name="top" x="572" y="1000"/>
	<anchor name="topright" x="915" y="1000"/>
	<anchor name="cy_descender" x="1018" y="134"/>
</glyph>
<glyph name="v" format="2">
	<unicode hex="0076"/>
	<advance width="1042"/>
	<outline>
		<contour>
			<point x="270.3115844727" y="2.5338745117" type="line"/>
			<point x="196.1724243164" y="509.5138549805" type="line"/>
			<point x="149.1327514648" y="869.0872192383" type="line"/>
			<point x="16.8714599609" y="858.5733032227" type="line"/>
			<point x="14.5532226562" y="946.6387939453" type="line"/>
			<point x="262.0482177734" y="1012.5162353516" type="line"/>
			<point x="302.0767822266" y="1012.5162353516" type="line"/>
			<point x="365.3668212891" y="496.8941040039" type="line"/>
			<point x="391.5257568359" y="190.2430419922" type="line"/>
			<point x="398.5579223633" y="110.9437866211" type="line"/>
			<point x="399.5579223633" y="110.9437866211" type="line"/>
			<point x="465.7510986328" y="187.9420166016" type="line"/>
			<point x="682.2821044922" y="456.0026855469"/>
			<point x="732.3276367188" y="677.7875976562"/>
			<point x="728.3276367188" y="748.7611083984" type="qcurve" smooth="yes"/>
			<point x="725.3276367188" y="841.5261230469"/>
			<point x="665.8376464844" y="957.0872802734"/>
			<point x="605.8376464844" y="982.1921386719" type="qcurve" smooth="yes"/>
			<point x="592.8376464844" y="974.7756347656"/>
			<point x="676.1104125977" y="1022.1207885742"/>
			<point x="727.7572021484" y="1022.1207885742" type="qcurve" smooth="yes"/>
			<point x="786.3887939453" y="1022.1207885742"/>
			<point x="930.5668334961" y="946.854309082"/>
			<point x="930.5668334961" y="819.9827880859" type="qcurve" smooth="yes"/>
			<point x="930.5668334961" y="678.6485595703"/>
			<point x="604.6083374023" y="150.8278808594"/>
			<point x="398.9286499023" y="2.5338745117" type="qcurve"/>
		</contour>
	</outline>
	<anchor name="bottom" x="513" y="0"/>
	<anchor name="top" x="513" y="1000"/>
</glyph>
<glyph name="w" format="2">
	<unicode hex="0077"/>
	<advance width="1418"/>
	<outline>
		<contour>
			<point x="131.6987304688" y="0" type="line"/>
			<point x="87.4618530273" y="512.0753173828" type="line"/>
			<point x="67.7377319336" y="870.4507446289" type="line"/>
			<point x="-69.7282104492" y="857.0277709961" type="line"/>
			<point x="-72.0464477539" y="947.0932617188" type="line"/>
			<point x="70.3910522461" y="1008.5162353516" type="line"/>
			<point x="205.9588012695" y="1008.5162353516" type="line"/>
			<point x="229.754699707" y="572.8853759766" type="line"/>
			<point x="245.0130615234" y="86.8861083984" type="line"/>
			<point x="244.4223632812" y="54.2998046875" type="line"/>
			<point x="245.4223632812" y="54.2998046875" type="line"/>
			<point x="267.6287841797" y="88.4320068359" type="line"/>
			<point x="330.643737793" y="181.1599121094"/>
			<point x="415.6937255859" y="294.3900146484"/>
			<point x="474.7086791992" y="383.1179199219" type="qcurve"/>
			<point x="462.2537841797" y="880.4694824219" type="line"/>
			<point x="398.7184448242" y="865.712890625" type="line"/>
			<point x="399.7184448242" y="957.1192626953" type="line"/>
			<point x="448.8587036133" y="1008.5162353516" type="line"/>
			<point x="590.7466430664" y="1008.5162353516" type="line"/>
			<point x="664.9927368164" y="548.0131835938" type="line"/>
			<point x="696.7485961914" y="118.5279541016" type="line"/>
			<point x="710.5654296875" y="93.154296875" type="line"/>
			<point x="711.5654296875" y="93.154296875" type="line"/>
			<point x="750.3140869141" y="121.8294677734" type="line"/>
			<point x="952.0089111328" y="352.3334350586"/>
			<point x="1096.6276245117" y="660.5662841797"/>
			<point x="1096.6276245117" y="767.8560180664" type="qcurve" smooth="yes"/>
			<point x="1096.6276245117" y="840.5745849609"/>
			<point x="1030.5809936523" y="956.0634765625"/>
			<point x="971.2213745117" y="993.1470947266" type="qcurve" smooth="yes"/>
			<point x="984.8617553711" y="1006.5114746094"/>
			<point x="1035.3049926758" y="1034.5162353516"/>
			<point x="1063.1520385742" y="1034.5162353516" type="qcurve" smooth="yes"/>
			<point x="1108.5204467773" y="949.2158203125"/>
			<point x="1241.8737182617" y="940.1566162109"/>
			<point x="1241.8737182617" y="836.7969970703" type="qcurve" smooth="yes"/>
			<point x="1241.8737182617" y="664.8006591797"/>
			<point x="931.8617553711" y="182.4105834961"/>
			<point x="759.0206298828" y="0" type="qcurve"/>
			<point x="562.642578125" y="0" type="line"/>
			<point x="514.5211181641" y="187.3426513672" type="line"/>
			<point x="509.7040405273" y="229.3840332031" type="line"/>
			<point x="508.7040405273" y="229.3840332031" type="line"/>
			<point x="477.743347168" y="178.1141357422" type="line"/>
			<point x="435.0170288086" y="125.6054077148"/>
			<point x="352.8563232422" y="40.5087280273"/>
			<point x="319.1300048828" y="0" type="qcurve"/>
		</contour>
	</outline>
	<anchor name="bottom" x="787" y="0"/>
	<anchor name="top" x="717" y="1000"/>
</glyph>
<glyph name="x" format="2">
	<unicode hex="0078"/>
	<advance width="1146"/>
	<outline>
		<contour>
			<point x="159.4362792969" y="14.2671508789" type="qcurve"/>
			<point x="-17.9750976562" y="81.5701293945" type="line"/>
			<point x="-5.5436401367" y="165.9538574219" type="line"/>
			<point x="144.3885498047" y="177.6508789062" type="line" smooth="yes"/>
			<point x="193.6528320312" y="187.8377075195"/>
			<point x="301.2048950195" y="247.1029663086"/>
			<point x="380.515625" y="269.7670898438" type="qcurve" smooth="yes"/>
			<point x="400.4700927734" y="255.7938232422"/>
			<point x="498.7537231445" y="329.2476806641"/>
			<point x="538.5838623047" y="346.9619140625" type="qcurve"/>
			<point x="292.7142944336" y="842.8142700195" type="line"/>
			<point x="133.4314575195" y="840.3613891602" type="line"/>
			<point x="141.1132202148" y="927.4268798828" type="line"/>
			<point x="241.5282592773" y="1026.5162353516" type="line"/>
			<point x="396.5282592773" y="990.5162353516" type="line"/>
			<point x="498.3219604492" y="756.1832885742" type="line"/>
			<point x="528.7788085938" y="718.7398681641" type="line"/>
			<point x="528.7788085938" y="718.7398681641" type="line"/>
			<point x="567.7677612305" y="747.4619750977" type="line" smooth="yes"/>
			<point x="613.3893432617" y="797.6953125"/>
			<point x="643.5469360352" y="835.4374389648"/>
			<point x="677.9443969727" y="870.8809204102" type="qcurve" smooth="yes"/>
			<point x="751.8302612305" y="950.6812133789"/>
			<point x="872.9812011719" y="1018.2490844727"/>
			<point x="913.8733520508" y="1018.2490844727" type="qcurve" smooth="yes"/>
			<point x="965.3125" y="1018.2490844727"/>
			<point x="1007.9782714844" y="954.6714477539"/>
			<point x="1007.9782714844" y="907.6714477539" type="qcurve" smooth="yes"/>
			<point x="1007.9782714844" y="842.6714477539"/>
			<point x="952.5559082031" y="716.2490844727"/>
			<point x="921.5559082031" y="691.2490844727" type="qcurve"/>
			<point x="886.5559082031" y="705.2490844727" type="line"/>
			<point x="885.3559570312" y="744.2046508789" type="line" smooth="yes"/>
			<point x="882.9560546875" y="733.4058227539"/>
			<point x="853.2629394531" y="770.850769043"/>
			<point x="830.3803100586" y="770.850769043" type="qcurve" smooth="yes"/>
			<point x="800.8469848633" y="770.850769043"/>
			<point x="710.9201049805" y="736.1166992188"/>
			<point x="676.4334106445" y="714.7381591797" type="qcurve" smooth="yes"/>
			<point x="645.7466430664" y="696.6042480469"/>
			<point x="596.481628418" y="664.0268554688"/>
			<point x="570.7061157227" y="647.53515625" type="qcurve"/>
			<point x="791.9630126953" y="167.9975585938" type="line"/>
			<point x="946.0040283203" y="177.7541503906" type="line"/>
			<point x="943.0040283203" y="88.7565917969" type="line"/>
			<point x="812.4672851562" y="-20" type="line"/>
			<point x="707.4672851562" y="51" type="line"/>
			<point x="603.5512695312" y="264.8408813477" type="line"/>
			<point x="578.491394043" y="288.3483886719" type="line"/>
			<point x="578.491394043" y="288.3483886719" type="line"/>
			<point x="545.2353515625" y="264.8830566406" type="line"/>
			<point x="553.0955200195" y="286.9134521484"/>
			<point x="514.4443359375" y="224.7385253906"/>
			<point x="453.134765625" y="150.6275634766" type="qcurve" smooth="yes"/>
			<point x="392.3364257812" y="88.0701904297"/>
			<point x="226.6356201172" y="-27.3323364258"/>
		</contour>
	</outline>
	<anchor name="bottom" x="522" y="0"/>
	<anchor name="top" x="522" y="1000"/>
	<anchor name="cy_descender" x="832" y="134"/>
	<anchor name="center" x="432" y="502"/>
</glyph>
<glyph name="y" format="2">
	<unicode hex="0079"/>
	<advance width="1083"/>
	<outline>
		<contour>
			<point x="-466.7825927734" y="-368.0538330078" type="line"/>
			<point x="-455.7825927734" y="-325.0538330078" type="line"/>
			<point x="-289.3480224609" y="-320.0538330078" type="line" smooth="yes"/>
			<point x="-109.0003662109" y="-314.0538330078"/>
			<point x="180.6534423828" y="-220.7193603516"/>
			<point x="274.8643798828" y="-92" type="qcurve" smooth="yes"/>
			<point x="343.5408935547" y="0" type="line"/>
			<point x="198.8466796875" y="0" type="line"/>
			<point x="216.2033081055" y="25.4451293945"/>
			<point x="172.4361572266" y="753.4507446289"/>
			<point x="150.9212646484" y="870.4507446289" type="qcurve"/>
			<point x="16.6146850586" y="857.5733032227" type="line"/>
			<point x="15.2964477539" y="945.6387939453" type="line"/>
			<point x="265.7479858398" y="1012.5162353516" type="line"/>
			<point x="265.6759643555" y="1012.5162353516" type="line"/>
			<point x="321.1168823242" y="944.5162353516" type="line"/>
			<point x="369.4760742188" y="176.4653320312" type="line"/>
			<point x="372.4139404297" y="99.2609863281" type="line"/>
			<point x="372.4139404297" y="99.2609863281" type="line"/>
			<point x="442.7928466797" y="175.4038085938" type="line" smooth="yes"/>
			<point x="593.2281494141" y="379.7325439453"/>
			<point x="766.9976196289" y="679.3424072266"/>
			<point x="765.9976196289" y="820.4957275391" type="qcurve" smooth="yes"/>
			<point x="764.9976196289" y="895.7322998047"/>
			<point x="814.5053100586" y="986.5004882812"/>
			<point x="748.5053100586" y="1004.7119140625" type="qcurve" smooth="yes"/>
			<point x="742.5053100586" y="1009.4359130859"/>
			<point x="795.1504516602" y="1029.8839111328"/>
			<point x="821.9186401367" y="1029.8839111328" type="qcurve" smooth="yes"/>
			<point x="881.9628295898" y="1029.8839111328"/>
			<point x="964.4474487305" y="950.8002929688"/>
			<point x="964.4474487305" y="889.02734375" type="qcurve" smooth="yes"/>
			<point x="964.4474487305" y="753.0225830078"/>
			<point x="495.3167724609" y="51.7454833984"/>
			<point x="371.9074707031" y="-97.9992675781" type="qcurve" smooth="yes"/>
			<point x="356.3024902344" y="-117.9992675781" type="line" smooth="yes"/>
			<point x="187.4006347656" y="-324.2358398438"/>
			<point x="-86.8201904297" y="-420.0538330078"/>
			<point x="-257.3480224609" y="-420.0538330078" type="qcurve"/>
		</contour>
	</outline>
	<anchor name="bottom" x="782" y="0"/>
	<anchor name="top" x="504" y="1000"/>
</glyph>
<glyph name="z" format="2">
	<unicode hex="007A"/>
	<advance width="956"/>
	<outline>
		<contour>
			<point x="83.2554931641" y="-14.6513671875" type="line"/>
			<point x="-13.9975585938" y="114.5595703125" type="line"/>
			<point x="70.2516479492" y="172.69921875"/>
			<point x="234.7736206055" y="319.6817016602"/>
			<point x="381.3882446289" y="469.2223510742" type="qcurve" smooth="yes"/>
			<point x="516.3947753906" y="608.2223510742"/>
			<point x="617.7975463867" y="679.6540527344"/>
			<point x="640.2203979492" y="710.5162353516" type="qcurve"/>
			<point x="181.6786499023" y="701.5162353516" type="line"/>
			<point x="143.4087524414" y="574.5159912109" type="line"/>
			<point x="38.5347290039" y="576.5159912109" type="line"/>
			<point x="135.8046264648" y="983.5162353516" type="line"/>
			<point x="207.8046264648" y="1012.5162353516" type="line"/>
			<point x="819.2100219727" y="997.5162353516" type="line"/>
			<point x="863.9776000977" y="875.3990478516" type="line"/>
			<point x="816.7330932617" y="827.3990478516"/>
			<point x="687.4844360352" y="699.650390625"/>
			<point x="544.5852050781" y="550.3936157227" type="qcurve" smooth="yes"/>
			<point x="416.0431518555" y="415.8529663086"/>
			<point x="321.6821899414" y="333.1451416016"/>
			<point x="287.7201538086" y="304.4010009766" type="qcurve"/>
			<point x="728.0416259766" y="271.0854492188" type="line"/>
			<point x="782.1845703125" y="394.0063476562" type="line"/>
			<point x="874.3267822266" y="382.1545410156" type="line"/>
			<point x="751.6600341797" y="21" type="line"/>
			<point x="669.6600341797" y="-26" type="line"/>
			<point x="205.4703369141" y="58.9765625" type="line"/>
		</contour>
	</outline>
	<anchor name="bottom" x="443" y="0"/>
	<anchor name="top" x="463" y="1000"/>
	<anchor name="_liga" x="0" y="0"/>
</glyph>
<glyph name="jdotless" format="2">
	<unicode hex="0237"/>
	<advance width="598"/>
	<outline>
		<contour>
			<point x="263.0252075195" y="814.4507446289" type="qcurve"/>
			<point x="116.5745239258" y="832.3613891602" type="line"/>
			<point x="120.2562866211" y="924.4268798828" type="line"/>
			<point x="279.9573364258" y="1008.5162353516" type="line"/>
			<point x="428.9573364258" y="1008.5162353516" type="line"/>
			<point x="461.9573364258" y="875.5162353516" type="line"/>
			<point x="416.2141113281" y="747.5162353516" type="line"/>
			<point x="334.5108642578" y="350" type="line"/>
			<point x="280.5061035156" y="-3.9371948242"/>
			<point x="-75.94140625" y="-479"/>
			<point x="-395.1550292969" y="-479" type="qcurve"/>
			<point x="-577.8317871094" y="-419" type="line"/>
			<point x="-561.6959228516" y="-343.9345092773" type="line"/>
			<point x="-377.6044921875" y="-341.252746582" type="line" smooth="yes"/>
			<point x="-128.3051147461" y="-335.3155517578"/>
			<point x="66.4869384766" y="-142.74609375"/>
			<point x="135.4416503906" y="185.2478637695" type="qcurve" smooth="yes"/>
			<point x="153.8917236328" y="263.7303466797"/>
			<point x="237.513671875" y="644.0426635742"/>
		</contour>
	</outline>
	<anchor name="bottom" x="88" y="-436"/>
	<anchor name="top" x="320" y="1000"/>
	<anchor name="_liga" x="0" y="0"/>
</glyph>
